<svg xmlns="http://www.w3.org/2000/svg" xmlns:xlink="http://www.w3.org/1999/xlink" width="1920" zoomAndPan="magnify" viewBox="0 0 1440 809.999993" height="1080" preserveAspectRatio="xMidYMid meet" version="1.0"><defs><clipPath id="id1"><path d="M 838.75 294.363281 L 1416.921875 294.363281 L 1416.921875 795 L 838.75 795 Z M 838.75 294.363281 " clip-rule="nonzero"/></clipPath><clipPath id="id2"><path d="M 871.207031 294.363281 L 1425.335938 294.363281 L 1425.335938 795.363281 L 871.207031 795.363281 Z M 871.207031 294.363281 " clip-rule="nonzero"/></clipPath><clipPath id="id3"><path d="M 876.015625 315 L 1439.761719 315 L 1439.761719 795 L 876.015625 795 Z M 876.015625 315 " clip-rule="nonzero"/></clipPath><clipPath id="id4"><path d="M 166 15.023438 L 318.035156 15.023438 L 318.035156 167 L 166 167 Z M 166 15.023438 " clip-rule="nonzero"/></clipPath><clipPath id="id5"><path d="M 0 70 L 198 70 L 198 339.023438 L 0 339.023438 Z M 0 70 " clip-rule="nonzero"/></clipPath></defs><rect x="-144" width="1728" fill="rgb(100%, 100%, 100%)" y="-80.999999" height="971.999992" fill-opacity="1"/><rect x="-144" width="1728" fill="rgb(100%, 100%, 100%)" y="-80.999999" height="971.999992" fill-opacity="1"/><rect x="-144" width="1728" fill="rgb(100%, 100%, 100%)" y="-80.999999" height="971.999992" fill-opacity="1"/><rect x="-144" width="1728" fill="rgb(100%, 100%, 100%)" y="-80.999999" height="971.999992" fill-opacity="1"/><g clip-path="url(#id1)"><path fill="rgb(98.039246%, 70.199585%, 15.689087%)" d="M 1416.882812 794.941406 L 838.75 794.941406 C 838.75 794.941406 849.546875 688.152344 897.796875 636.410156 C 946.050781 584.667969 915.742188 560.15625 948.625 482.261719 C 966.328125 440.3125 1132.835938 278.71875 1253.25 295.59375 C 1335.777344 307.164062 1342.210938 353.980469 1328.457031 406.6875 C 1333.964844 410.835938 1338.191406 414.652344 1339.246094 416.40625 C 1341.773438 420.621094 1337.898438 439.820312 1337.898438 439.820312 L 1339.414062 444.417969 L 1332.339844 455.6875 C 1332.339844 455.6875 1332 455.605469 1331.390625 455.449219 L 1329.902344 458.632812 C 1329.902344 458.632812 1329.6875 458.332031 1329.210938 457.777344 C 1328.527344 456.953125 1327.34375 455.582031 1325.832031 454.027344 C 1325.460938 453.644531 1325.066406 453.257812 1324.65625 452.855469 C 1324.59375 452.792969 1324.527344 452.726562 1324.457031 452.660156 C 1324.058594 452.273438 1323.648438 451.890625 1323.226562 451.503906 C 1323.191406 451.476562 1323.167969 451.453125 1323.136719 451.425781 C 1322.675781 451.007812 1322.199219 450.589844 1321.703125 450.179688 C 1321.644531 450.128906 1321.582031 450.078125 1321.523438 450.023438 C 1321.109375 449.683594 1320.6875 449.34375 1320.253906 449.015625 C 1320.136719 448.925781 1320.023438 448.835938 1319.90625 448.753906 C 1319.441406 448.398438 1318.96875 448.0625 1318.488281 447.738281 C 1318.449219 447.710938 1318.414062 447.6875 1318.375 447.65625 C 1317.863281 447.316406 1317.34375 446.996094 1316.816406 446.691406 C 1316.691406 446.617188 1316.558594 446.546875 1316.425781 446.472656 C 1316.140625 446.308594 1315.84375 446.167969 1315.554688 446.019531 C 1315.378906 446.480469 1315.207031 446.941406 1315.03125 447.398438 L 1316.625 449.453125 L 1315.03125 447.398438 C 1291.410156 509.746094 1259.714844 570.007812 1306.941406 582.496094 C 1405.25 608.496094 1416.882812 794.941406 1416.882812 794.941406 " fill-opacity="1" fill-rule="nonzero"/></g><g clip-path="url(#id2)"><path fill="rgb(94.898987%, 33.729553%, 14.118958%)" d="M 999.109375 450.113281 C 999.109375 448.71875 997.976562 447.582031 996.582031 447.582031 L 982.128906 447.582031 C 980.734375 447.582031 979.605469 448.71875 979.605469 450.113281 C 979.605469 451.503906 980.734375 452.640625 982.128906 452.640625 L 996.582031 452.640625 C 997.976562 452.640625 999.109375 451.503906 999.109375 450.113281 Z M 982.128906 441.851562 C 980.734375 441.851562 979.605469 442.988281 979.605469 444.382812 C 979.605469 445.773438 980.734375 446.910156 982.128906 446.910156 L 1001.792969 446.910156 C 1003.1875 446.910156 1004.324219 445.773438 1004.324219 444.382812 C 1004.324219 442.988281 1003.1875 441.851562 1001.792969 441.851562 Z M 956.4375 441.851562 L 936.773438 441.851562 C 935.378906 441.851562 934.246094 442.988281 934.246094 444.382812 C 934.246094 445.773438 935.378906 446.910156 936.773438 446.910156 L 956.4375 446.910156 C 957.832031 446.910156 958.96875 445.773438 958.96875 444.382812 C 958.96875 442.988281 957.832031 441.851562 956.4375 441.851562 Z M 908.984375 441.851562 L 889.320312 441.851562 C 887.925781 441.851562 886.792969 442.988281 886.792969 444.382812 C 886.792969 445.773438 887.925781 446.910156 889.320312 446.910156 L 908.984375 446.910156 C 910.378906 446.910156 911.511719 445.773438 911.511719 444.382812 C 911.511719 442.988281 910.378906 441.851562 908.984375 441.851562 Z M 1008.066406 520.722656 C 1008.066406 519.332031 1006.929688 518.195312 1005.542969 518.195312 L 996.582031 518.195312 C 995.1875 518.195312 994.054688 519.332031 994.054688 520.722656 C 994.054688 522.117188 995.1875 523.253906 996.582031 523.253906 L 1005.542969 523.253906 C 1006.929688 523.253906 1008.066406 522.117188 1008.066406 520.722656 Z M 1015.980469 509.261719 L 996.582031 509.261719 C 995.1875 509.261719 994.054688 510.398438 994.054688 511.792969 C 994.054688 513.1875 995.1875 514.320312 996.582031 514.320312 L 1015.980469 514.320312 C 1017.375 514.320312 1018.503906 513.1875 1018.503906 511.792969 C 1018.503906 510.398438 1017.375 509.261719 1015.980469 509.261719 Z M 1015.980469 500.335938 L 996.582031 500.335938 C 995.1875 500.335938 994.054688 501.464844 994.054688 502.859375 C 994.054688 504.253906 995.1875 505.386719 996.582031 505.386719 L 1015.980469 505.386719 C 1017.375 505.386719 1018.503906 504.253906 1018.503906 502.859375 C 1018.503906 501.464844 1017.375 500.335938 1015.980469 500.335938 Z M 1423.984375 639.082031 C 1409.128906 636.785156 1402.9375 649.6875 1402.878906 649.820312 C 1402.582031 650.453125 1402.855469 651.199219 1403.484375 651.496094 C 1403.664062 651.582031 1403.839844 651.617188 1404.023438 651.617188 C 1404.5 651.617188 1404.949219 651.34375 1405.167969 650.890625 C 1405.386719 650.429688 1410.644531 639.59375 1423.597656 641.582031 C 1424.289062 641.6875 1424.933594 641.214844 1425.039062 640.523438 C 1425.144531 639.835938 1424.667969 639.191406 1423.984375 639.082031 Z M 1313.160156 444.992188 L 1316.625 449.453125 C 1320.234375 454.101562 1322.320312 459.757812 1322.59375 465.640625 L 1322.761719 469.242188 C 1322.792969 469.984375 1323.710938 470.3125 1324.210938 469.765625 L 1327.921875 465.660156 C 1328.527344 464.996094 1328.925781 464.175781 1329.082031 463.292969 L 1329.902344 458.632812 C 1329.902344 458.632812 1321.523438 447.789062 1313.160156 444.992188 Z M 1361.277344 640.257812 L 1349.105469 618.464844 C 1349.105469 618.464844 1348.859375 618.144531 1348.375 617.679688 L 1329.550781 617.679688 C 1326.601562 619.558594 1323.347656 622.355469 1319.792969 626.386719 L 1349.105469 663.800781 Z M 1194.84375 601.09375 L 1219.027344 601.09375 C 1219.824219 548.585938 1227.339844 531.542969 1227.339844 531.542969 L 1241.878906 527.253906 L 1241.878906 526.511719 C 1228.796875 526.511719 1213.285156 526.5 1194.84375 526.46875 Z M 1194.84375 513.023438 L 1194.84375 522.683594 C 1199.015625 522.6875 1203.136719 522.695312 1207.207031 522.699219 L 1207.207031 513.023438 Z M 1207.207031 479.847656 L 1207.207031 463.476562 C 1202.976562 463.472656 1198.582031 463.464844 1194.007812 463.460938 L 1194.007812 479.847656 Z M 1190.214844 463.457031 C 1186.742188 463.453125 1183.171875 463.449219 1179.496094 463.441406 C 1178.667969 463.441406 1177.84375 463.4375 1177.015625 463.4375 L 1177.015625 479.847656 L 1190.214844 479.847656 Z M 1173.226562 463.433594 C 1168.8125 463.425781 1164.410156 463.417969 1160.027344 463.410156 L 1160.027344 479.847656 L 1173.226562 479.847656 Z M 1168.53125 513.023438 L 1160.027344 513.023438 L 1160.027344 522.628906 C 1162.863281 522.636719 1165.699219 522.640625 1168.53125 522.640625 Z M 1168.53125 526.433594 C 1158.03125 526.414062 1147.613281 526.394531 1137.550781 526.375 L 1137.550781 601.09375 L 1168.53125 601.09375 Z M 1137.550781 522.585938 C 1143.757812 522.601562 1150 522.613281 1156.238281 522.625 L 1156.238281 513.023438 L 1137.550781 513.023438 Z M 1137.550781 479.847656 L 1156.238281 479.847656 L 1156.238281 463.402344 C 1149.917969 463.390625 1143.667969 463.378906 1137.550781 463.367188 Z M 1210.996094 522.699219 C 1215.476562 522.703125 1219.875 522.707031 1224.195312 522.707031 L 1224.195312 513.023438 L 1210.996094 513.023438 Z M 1210.996094 479.847656 L 1218.679688 479.847656 L 1218.679688 463.488281 C 1216.183594 463.484375 1213.621094 463.484375 1210.996094 463.480469 Z M 1227.988281 522.710938 C 1232.5 522.710938 1236.90625 522.71875 1241.1875 522.71875 L 1241.1875 513.023438 L 1227.988281 513.023438 Z M 1253.835938 522.710938 C 1254.996094 522.710938 1256.136719 522.710938 1257.277344 522.710938 L 1258.175781 522.445312 L 1258.175781 513.023438 L 1253.835938 513.023438 Z M 1125.597656 405.804688 L 1083.421875 405.804688 L 1083.421875 454.429688 L 1096.066406 454.429688 C 1097.460938 454.429688 1098.597656 455.5625 1098.597656 456.957031 C 1098.597656 458.34375 1097.472656 459.472656 1096.089844 459.484375 C 1105.660156 459.507812 1115.542969 459.53125 1125.597656 459.554688 Z M 1125.597656 463.339844 C 1109.925781 463.308594 1095.476562 463.273438 1083.421875 463.242188 L 1083.421875 463.363281 L 1096.066406 463.363281 C 1097.460938 463.363281 1098.597656 464.496094 1098.597656 465.890625 C 1098.597656 467.285156 1097.460938 468.417969 1096.066406 468.417969 L 1083.421875 468.417969 L 1083.421875 472.296875 L 1085.628906 472.296875 C 1087.023438 472.296875 1088.15625 473.429688 1088.15625 474.824219 C 1088.15625 476.21875 1087.023438 477.347656 1085.628906 477.347656 L 1083.421875 477.347656 L 1083.421875 479.847656 L 1125.597656 479.847656 Z M 1125.597656 513.023438 L 1082.261719 513.023438 L 1082.261719 522.460938 C 1095.992188 522.492188 1110.617188 522.53125 1125.597656 522.5625 Z M 1125.597656 526.347656 C 1109.417969 526.316406 1094.546875 526.277344 1082.261719 526.25 L 1082.261719 601.09375 L 1125.597656 601.09375 Z M 1137.550781 389.214844 L 1218.679688 389.214844 L 1218.679688 376.125 L 1241.878906 376.125 L 1241.878906 339.023438 L 1137.550781 339.023438 Z M 1378.640625 629.796875 L 1401.960938 779.390625 L 1334.011719 793.234375 C 1334.011719 793.234375 1312.019531 703.714844 1311.722656 617.679688 L 1269.722656 617.679688 C 1272.140625 671.726562 1278.472656 739.019531 1294.039062 795.386719 C 1294.039062 795.386719 1235.953125 796.300781 1233.953125 782.703125 C 1223.167969 709.226562 1219.425781 655.839844 1219.003906 617.679688 L 1194.84375 617.679688 L 1194.84375 794.941406 L 1168.53125 794.941406 L 1168.53125 617.679688 L 1082.261719 617.679688 L 1082.261719 794.941406 L 1070.308594 794.941406 L 1070.308594 617.679688 L 1048.828125 617.679688 L 1048.828125 601.09375 L 1070.308594 601.09375 L 1070.308594 526.214844 C 1056.921875 526.179688 1048.6875 526.15625 1048.457031 526.15625 L 1048.464844 522.367188 C 1055.308594 522.382812 1062.621094 522.40625 1070.308594 522.425781 L 1070.308594 513.023438 L 1048.828125 513.023438 L 1048.828125 479.847656 L 1060.542969 479.847656 L 1060.542969 463.179688 C 1053.019531 463.160156 1048.621094 463.148438 1048.457031 463.148438 L 1048.464844 459.351562 C 1052.34375 459.367188 1056.382812 459.375 1060.542969 459.390625 L 1060.542969 405.804688 L 1048.828125 405.804688 L 1048.828125 389.214844 L 1060.542969 389.214844 L 1060.542969 368.273438 C 1067.976562 362.730469 1075.621094 357.308594 1083.421875 352.066406 L 1083.421875 389.214844 L 1125.597656 389.214844 L 1125.597656 339.023438 L 1103.867188 339.023438 C 1111.027344 334.699219 1118.28125 330.570312 1125.597656 326.695312 C 1128.347656 325.238281 1131.109375 323.816406 1133.875 322.433594 C 1135.101562 321.824219 1136.328125 321.21875 1137.550781 320.628906 L 1137.550781 322.433594 L 1241.878906 322.433594 L 1241.878906 294.527344 C 1245.710938 294.714844 1249.503906 295.070312 1253.25 295.59375 C 1253.449219 295.621094 1253.636719 295.65625 1253.835938 295.683594 L 1253.835938 322.433594 L 1317.417969 322.433594 C 1322.257812 327.46875 1325.90625 333.03125 1328.535156 339.023438 L 1253.835938 339.023438 L 1253.835938 376.125 L 1275.136719 376.125 L 1275.136719 389.214844 L 1332.246094 389.214844 C 1331.335938 394.648438 1330.125 400.191406 1328.6875 405.804688 L 1327.273438 405.804688 C 1319.742188 400.246094 1310.1875 394.300781 1303 391.972656 C 1289.996094 387.757812 1267.640625 394.160156 1267.640625 394.160156 L 1262.382812 394.320312 C 1258.640625 394.429688 1255.289062 396.628906 1253.703125 400.015625 L 1247.699219 412.800781 C 1245.34375 417.824219 1240.71875 421.417969 1235.265625 422.460938 L 1218.679688 425.636719 L 1218.679688 405.804688 L 1137.550781 405.804688 L 1137.550781 459.578125 C 1165.085938 459.632812 1193.257812 459.675781 1218.679688 459.695312 L 1218.679688 428.308594 L 1243.855469 433.703125 C 1244.027344 433.421875 1244.207031 433.179688 1244.390625 433.015625 C 1249.15625 428.675781 1261.4375 427.863281 1269.851562 427.957031 C 1269.859375 427.957031 1269.863281 427.957031 1269.867188 427.957031 C 1270.730469 428.097656 1271.59375 428.253906 1272.460938 428.410156 C 1272.515625 428.425781 1272.578125 428.433594 1272.632812 428.445312 C 1273.453125 428.605469 1274.273438 428.769531 1275.097656 428.941406 C 1275.109375 428.945312 1275.121094 428.945312 1275.136719 428.953125 L 1275.136719 459.679688 C 1294.355469 459.644531 1307.398438 459.5625 1310.382812 459.425781 C 1309.890625 460.679688 1309.398438 461.929688 1308.90625 463.183594 C 1304.820312 463.335938 1295.75 463.4375 1275.136719 463.480469 L 1275.136719 479.847656 L 1302.296875 479.847656 C 1297.742188 491.382812 1293.453125 502.550781 1290.039062 513.023438 L 1261.96875 513.023438 L 1261.96875 521.328125 L 1268.953125 519.265625 C 1268.953125 519.265625 1268.90625 520.472656 1268.835938 522.699219 C 1275.601562 522.6875 1281.738281 522.675781 1287.109375 522.65625 C 1286.746094 523.9375 1286.410156 525.203125 1286.089844 526.457031 C 1281.261719 526.476562 1275.527344 526.488281 1268.726562 526.5 C 1268.398438 538.910156 1267.960938 566.332031 1269.089844 601.09375 L 1311.953125 601.09375 C 1312.910156 570.632812 1317.003906 541.382812 1326.230469 517.597656 C 1326.609375 516.621094 1327.394531 514.691406 1327.394531 514.691406 L 1377.941406 523.984375 Z M 1010.277344 399.457031 L 1010.277344 394.300781 C 1010.277344 391.191406 1007.757812 388.671875 1004.648438 388.671875 L 1001.746094 388.671875 C 1000.878906 378.65625 994.9375 336.542969 956.0625 327.6875 L 955.417969 324.335938 C 955.328125 322.128906 953.511719 320.386719 951.304688 320.386719 L 931.332031 320.386719 C 929.148438 320.386719 927.339844 322.097656 927.222656 324.285156 L 926.664062 327.421875 C 887.210938 335.589844 881.335938 377.84375 880.476562 388.671875 L 877.070312 388.671875 C 873.960938 388.671875 871.445312 391.191406 871.445312 394.300781 L 871.445312 399.457031 C 871.445312 402.566406 873.960938 405.085938 877.070312 405.085938 L 1004.648438 405.085938 C 1007.757812 405.085938 1010.277344 402.566406 1010.277344 399.457031 Z M 1015.25 644.539062 C 1015.25 648.242188 1012.238281 651.257812 1008.53125 651.257812 C 1004.828125 651.257812 1001.8125 648.242188 1001.8125 644.539062 C 1001.8125 640.828125 1004.828125 637.816406 1008.53125 637.816406 C 1012.238281 637.816406 1015.25 640.828125 1015.25 644.539062 " fill-opacity="1" fill-rule="nonzero"/></g><path fill="rgb(96.469116%, 51.368713%, 41.958618%)" d="M 1310.160156 482.40625 L 1308.972656 474.652344 C 1309.113281 474.253906 1309.253906 473.863281 1309.386719 473.453125 C 1310.617188 469.710938 1312.007812 465.523438 1313.238281 461.113281 C 1314.867188 455.277344 1314.25 449.363281 1311.9375 444.257812 C 1306.574219 441.015625 1299.820312 437.488281 1291.316406 433.933594 C 1286.128906 431.765625 1280.78125 430.175781 1275.472656 429.027344 C 1267.027344 429.511719 1256.765625 431.101562 1244.175781 434.300781 C 1243.886719 434.375 1244.203125 437.359375 1244.667969 442.066406 C 1245.1875 447.3125 1245.898438 454.6875 1246.164062 462.582031 C 1246.199219 463.578125 1246.210938 464.578125 1246.207031 465.578125 C 1243.417969 468.664062 1239.992188 473.390625 1242.234375 476.066406 C 1243.480469 477.550781 1244.714844 478.460938 1245.789062 479.03125 C 1245.585938 486.714844 1245.996094 493.621094 1249.871094 498.480469 C 1253.152344 502.582031 1260.292969 504.839844 1267.164062 505.308594 C 1270.59375 511.785156 1271.785156 522.300781 1272.691406 531.332031 C 1272.691406 531.335938 1260.453125 555.734375 1279 560.707031 C 1293.679688 564.636719 1323.878906 542.511719 1323.878906 520.710938 C 1317.707031 513.847656 1313.675781 505.332031 1312.277344 496.207031 Z M 1159.277344 720.882812 C 1157.003906 719.363281 1150.429688 719.535156 1150.429688 719.535156 C 1150.429688 719.535156 1147.90625 717.339844 1145.378906 717.339844 C 1142.851562 717.339844 1130.71875 718.035156 1130.71875 718.035156 C 1130.71875 718.035156 1127.6875 721.890625 1127.6875 723.410156 C 1127.6875 724.925781 1131.730469 726.441406 1131.730469 726.441406 C 1131.730469 726.441406 1129.964844 729.476562 1130.71875 730.992188 C 1131.480469 732.503906 1137.289062 735.289062 1137.289062 735.289062 C 1135.523438 737.816406 1142.347656 740.089844 1146.441406 740.222656 C 1150.53125 740.351562 1155.996094 732.503906 1157.003906 730.230469 C 1158.015625 727.960938 1161.046875 725.433594 1161.046875 725.433594 C 1161.046875 725.433594 1161.554688 722.398438 1159.277344 720.882812 Z M 1419.730469 718.609375 C 1419.730469 718.605469 1419.730469 718.59375 1419.730469 718.585938 C 1419.707031 717.871094 1419.53125 717.199219 1419.136719 716.636719 L 1417.984375 711.46875 L 1417.5625 709.582031 C 1417.390625 708.8125 1417.160156 708.066406 1416.902344 707.335938 C 1416.660156 706.632812 1416.390625 705.945312 1416.074219 705.285156 C 1416.050781 705.234375 1416.019531 705.191406 1415.996094 705.140625 C 1415.714844 704.574219 1415.40625 704.027344 1415.078125 703.492188 C 1414.65625 702.800781 1414.199219 702.132812 1413.703125 701.507812 C 1413.390625 701.117188 1413.070312 700.746094 1412.738281 700.386719 C 1412.066406 699.664062 1411.34375 698.988281 1410.578125 698.371094 C 1410.1875 698.066406 1409.792969 697.769531 1409.386719 697.488281 C 1408.574219 696.929688 1407.71875 696.433594 1406.824219 695.996094 C 1405.035156 695.125 1403.09375 694.515625 1401.0625 694.210938 L 1392.492188 689.460938 L 1386.082031 685.902344 L 1385.976562 685.847656 L 1387.71875 689.289062 L 1390.882812 695.539062 C 1390.128906 695.738281 1389.40625 696.042969 1388.753906 696.460938 C 1388.742188 696.46875 1388.726562 696.480469 1388.707031 696.488281 C 1388.429688 696.671875 1388.167969 696.867188 1387.917969 697.085938 C 1387.851562 697.136719 1387.792969 697.1875 1387.730469 697.25 C 1387.472656 697.484375 1387.222656 697.738281 1387 698.015625 C 1386.824219 698.226562 1386.664062 698.449219 1386.511719 698.675781 L 1386.300781 699.027344 L 1386.179688 699.238281 L 1385.800781 699.921875 L 1385.074219 701.296875 C 1384.585938 702.214844 1384.121094 703.136719 1383.664062 704.078125 C 1382.753906 705.945312 1381.878906 707.835938 1381.132812 709.796875 C 1380.65625 711.066406 1381.019531 712.550781 1382.132812 713.4375 C 1383.519531 714.53125 1385.527344 714.300781 1386.628906 712.921875 C 1387.933594 711.277344 1389.105469 709.558594 1390.246094 707.816406 C 1390.816406 706.945312 1391.375 706.074219 1391.910156 705.179688 L 1393.066406 703.265625 L 1393.484375 703.265625 L 1394.773438 703.242188 L 1395.179688 704.03125 L 1395.894531 705.457031 C 1395.5625 705.503906 1395.234375 705.550781 1394.910156 705.636719 C 1393.164062 706.078125 1391.539062 707.246094 1390.5625 708.59375 L 1382.101562 719.960938 C 1381.398438 720.914062 1381.539062 722.273438 1382.457031 723.046875 C 1383.410156 723.859375 1384.847656 723.742188 1385.65625 722.785156 L 1394.8125 711.976562 C 1395.261719 711.449219 1395.714844 711.234375 1396.261719 711.121094 C 1396.398438 711.105469 1396.53125 711.085938 1396.660156 711.089844 L 1397.359375 711.105469 L 1398.769531 711.140625 L 1399.332031 712.25 L 1399.945312 713.457031 C 1399.660156 713.53125 1399.386719 713.605469 1399.113281 713.714844 C 1398.457031 713.972656 1397.84375 714.339844 1397.296875 714.785156 L 1396.609375 715.382812 L 1395.371094 716.496094 C 1393.738281 718.003906 1392.136719 719.546875 1390.582031 721.148438 C 1389.046875 722.777344 1387.527344 724.425781 1386.152344 726.246094 C 1385.589844 726.996094 1385.453125 728.023438 1385.890625 728.925781 C 1386.511719 730.203125 1388.050781 730.734375 1389.328125 730.113281 C 1391.378906 729.121094 1393.296875 727.953125 1395.191406 726.765625 C 1397.066406 725.554688 1398.890625 724.28125 1400.6875 722.972656 L 1402.019531 721.976562 L 1402.226562 721.816406 L 1402.867188 721.726562 C 1403.257812 721.675781 1403.644531 721.605469 1404.035156 721.535156 L 1405.726562 724.882812 L 1391.007812 731.101562 C 1389.953125 731.550781 1389.382812 732.742188 1389.730469 733.851562 C 1390.101562 735.046875 1391.371094 735.707031 1392.558594 735.335938 L 1408.488281 730.351562 L 1408.527344 730.414062 L 1408.542969 730.449219 L 1408.949219 730.21875 L 1408.996094 730.191406 L 1410.523438 729.710938 C 1410.929688 729.578125 1411.324219 729.34375 1411.640625 729.011719 L 1411.734375 728.914062 L 1412.324219 728.289062 L 1412.371094 728.261719 L 1412.507812 728.179688 L 1417.074219 725.628906 C 1417.074219 725.628906 1417.261719 725.355469 1417.53125 724.914062 C 1417.617188 724.773438 1417.710938 724.617188 1417.8125 724.4375 C 1417.898438 724.285156 1417.988281 724.125 1418.082031 723.953125 C 1418.25 723.644531 1418.421875 723.308594 1418.59375 722.949219 C 1418.871094 722.355469 1419.128906 721.707031 1419.335938 721.046875 C 1419.378906 720.90625 1419.414062 720.765625 1419.453125 720.625 C 1419.636719 719.945312 1419.746094 719.261719 1419.730469 718.609375 Z M 1137.757812 712.53125 C 1137.757812 712.53125 1131.335938 715.484375 1127.414062 717.257812 C 1123.488281 719.027344 1121.136719 716.617188 1120.464844 714.414062 C 1119.789062 712.207031 1127.304688 708.464844 1129.300781 705.804688 C 1131.296875 703.148438 1145.269531 699.792969 1145.269531 699.792969 L 1142.464844 715.207031 L 1137.757812 712.53125 " fill-opacity="1" fill-rule="nonzero"/><path fill="rgb(97.24884%, 89.019775%, 76.858521%)" d="M 1097.332031 456.957031 C 1097.332031 456.257812 1096.769531 455.695312 1096.066406 455.695312 L 1076.671875 455.695312 C 1075.972656 455.695312 1075.410156 456.257812 1075.410156 456.957031 C 1075.410156 457.65625 1075.972656 458.21875 1076.671875 458.21875 L 1096.066406 458.21875 C 1096.769531 458.21875 1097.332031 457.65625 1097.332031 456.957031 Z M 1097.332031 465.890625 C 1097.332031 465.195312 1096.769531 464.625 1096.066406 464.625 L 1076.671875 464.625 C 1075.972656 464.625 1075.410156 465.195312 1075.410156 465.890625 C 1075.410156 466.589844 1075.972656 467.152344 1076.671875 467.152344 L 1096.066406 467.152344 C 1096.769531 467.152344 1097.332031 466.589844 1097.332031 465.890625 Z M 1086.894531 474.824219 C 1086.894531 474.121094 1086.324219 473.558594 1085.628906 473.558594 L 1076.671875 473.558594 C 1075.972656 473.558594 1075.410156 474.121094 1075.410156 474.824219 C 1075.410156 475.523438 1075.972656 476.085938 1076.671875 476.085938 L 1085.628906 476.085938 C 1086.324219 476.085938 1086.894531 475.523438 1086.894531 474.824219 Z M 1017.242188 502.859375 C 1017.242188 502.160156 1016.679688 501.597656 1015.980469 501.597656 L 996.582031 501.597656 C 995.882812 501.597656 995.320312 502.160156 995.320312 502.859375 C 995.320312 503.558594 995.882812 504.125 996.582031 504.125 L 1015.980469 504.125 C 1016.679688 504.125 1017.242188 503.558594 1017.242188 502.859375 Z M 1017.242188 511.792969 C 1017.242188 511.09375 1016.679688 510.527344 1015.980469 510.527344 L 996.582031 510.527344 C 995.882812 510.527344 995.320312 511.09375 995.320312 511.792969 C 995.320312 512.488281 995.882812 513.058594 996.582031 513.058594 L 1015.980469 513.058594 C 1016.679688 513.058594 1017.242188 512.488281 1017.242188 511.792969 Z M 1006.804688 520.722656 C 1006.804688 520.027344 1006.234375 519.457031 1005.542969 519.457031 L 996.582031 519.457031 C 995.882812 519.457031 995.320312 520.027344 995.320312 520.722656 C 995.320312 521.421875 995.882812 521.984375 996.582031 521.984375 L 1005.542969 521.984375 C 1006.234375 521.984375 1006.804688 521.421875 1006.804688 520.722656 Z M 982.128906 451.378906 L 996.582031 451.378906 C 997.28125 451.378906 997.84375 450.808594 997.84375 450.113281 C 997.84375 449.414062 997.28125 448.847656 996.582031 448.847656 L 982.128906 448.847656 C 981.433594 448.847656 980.867188 449.414062 980.867188 450.113281 C 980.867188 450.808594 981.433594 451.378906 982.128906 451.378906 Z M 957.703125 444.382812 C 957.703125 443.683594 957.136719 443.117188 956.4375 443.117188 L 936.773438 443.117188 C 936.074219 443.117188 935.507812 443.683594 935.507812 444.382812 C 935.507812 445.078125 936.074219 445.648438 936.773438 445.648438 L 956.4375 445.648438 C 957.136719 445.648438 957.703125 445.078125 957.703125 444.382812 Z M 910.25 444.382812 C 910.25 443.683594 909.683594 443.117188 908.984375 443.117188 L 889.320312 443.117188 C 888.621094 443.117188 888.058594 443.683594 888.058594 444.382812 C 888.058594 445.078125 888.621094 445.648438 889.320312 445.648438 L 908.984375 445.648438 C 909.683594 445.648438 910.25 445.078125 910.25 444.382812 Z M 980.867188 444.382812 C 980.867188 445.078125 981.433594 445.648438 982.128906 445.648438 L 1001.792969 445.648438 C 1002.492188 445.648438 1003.058594 445.078125 1003.058594 444.382812 C 1003.058594 443.683594 1002.492188 443.117188 1001.792969 443.117188 L 982.128906 443.117188 C 981.433594 443.117188 980.867188 443.683594 980.867188 444.382812 Z M 1114.503906 601.507812 L 860.59375 601.507812 L 860.59375 428.359375 L 1114.503906 428.359375 Z M 1268.890625 597.398438 L 1219.140625 596.714844 L 1218.921875 618.320312 L 1269.75 618.464844 Z M 1268.246094 563.429688 L 1220.964844 563.285156 L 1219.355469 584.679688 L 1269 584.679688 Z M 1410.484375 729.71875 L 1408.996094 730.191406 L 1408.542969 730.449219 L 1408.488281 730.351562 L 1392.558594 735.335938 C 1391.371094 735.707031 1390.101562 735.046875 1389.730469 733.851562 C 1389.382812 732.742188 1389.953125 731.550781 1391.007812 731.101562 L 1405.726562 724.882812 L 1404.035156 721.535156 C 1403.644531 721.605469 1403.257812 721.675781 1402.867188 721.726562 L 1402.226562 721.816406 L 1402.019531 721.976562 L 1400.6875 722.972656 C 1398.890625 724.28125 1397.066406 725.554688 1395.191406 726.765625 C 1393.296875 727.953125 1391.378906 729.121094 1389.328125 730.113281 C 1388.050781 730.734375 1386.511719 730.203125 1385.890625 728.925781 C 1385.453125 728.023438 1385.589844 726.996094 1386.152344 726.246094 C 1387.527344 724.425781 1389.046875 722.777344 1390.582031 721.148438 C 1392.136719 719.546875 1393.738281 718.003906 1395.371094 716.496094 L 1396.609375 715.382812 L 1397.296875 714.785156 C 1397.84375 714.339844 1398.457031 713.972656 1399.113281 713.714844 C 1399.386719 713.605469 1399.660156 713.53125 1399.945312 713.457031 L 1398.769531 711.140625 L 1397.359375 711.105469 L 1396.660156 711.089844 C 1396.53125 711.085938 1396.398438 711.105469 1396.261719 711.121094 C 1395.714844 711.234375 1395.261719 711.449219 1394.8125 711.976562 L 1385.65625 722.785156 C 1384.847656 723.742188 1383.410156 723.859375 1382.457031 723.046875 C 1381.539062 722.273438 1381.398438 720.914062 1382.101562 719.960938 L 1390.5625 708.59375 C 1391.539062 707.246094 1393.164062 706.078125 1394.910156 705.636719 C 1395.234375 705.550781 1395.5625 705.503906 1395.894531 705.457031 L 1394.773438 703.242188 L 1393.484375 703.265625 L 1393.066406 703.265625 L 1391.910156 705.179688 C 1391.375 706.074219 1390.816406 706.945312 1390.246094 707.816406 C 1389.105469 709.558594 1387.933594 711.277344 1386.628906 712.921875 C 1385.527344 714.300781 1383.519531 714.53125 1382.132812 713.4375 C 1381.019531 712.550781 1380.65625 711.066406 1381.132812 709.796875 C 1381.878906 707.835938 1382.753906 705.945312 1383.664062 704.078125 C 1384.121094 703.136719 1384.585938 702.214844 1385.074219 701.296875 L 1385.800781 699.921875 L 1386.179688 699.238281 L 1386.300781 699.027344 L 1386.511719 698.675781 C 1386.664062 698.449219 1386.824219 698.226562 1387 698.015625 C 1387.980469 696.789062 1389.371094 695.933594 1390.882812 695.539062 L 1385.976562 685.847656 L 1386.417969 686.089844 L 1349.105469 618.464844 C 1349.105469 618.464844 1323.132812 667.238281 1241.390625 659.941406 C 1161.140625 652.773438 1102.371094 678.019531 1102.371094 678.019531 L 1130.71875 718.035156 C 1130.71875 718.035156 1142.851562 717.339844 1145.378906 717.339844 C 1147.90625 717.339844 1150.429688 719.535156 1150.429688 719.535156 C 1150.429688 719.535156 1157.003906 719.363281 1159.277344 720.882812 C 1161.554688 722.398438 1161.046875 725.433594 1161.046875 725.433594 C 1161.046875 725.433594 1158.015625 727.960938 1157.003906 730.230469 C 1155.996094 732.503906 1150.53125 740.351562 1146.441406 740.222656 L 1174.105469 779.273438 C 1174.105469 779.273438 1240.152344 745.238281 1288.570312 755.664062 C 1333.0625 765.246094 1414.582031 737.148438 1414.582031 737.148438 Z M 1378.707031 620.421875 C 1378.382812 615.058594 1378.980469 607.339844 1378.570312 599.164062 L 1311.960938 599.570312 C 1311.21875 606.394531 1311.554688 613.921875 1311.6875 621.644531 L 1324.699219 621.410156 C 1340.460938 607.320312 1349.105469 618.464844 1349.105469 618.464844 L 1350.492188 620.941406 Z M 1378.296875 560.707031 L 1314.800781 561.925781 C 1313.882812 568.476562 1313.449219 574.921875 1313.042969 582.507812 L 1378.433594 582.371094 C 1378.160156 575.421875 1378.433594 567.46875 1378.296875 560.707031 Z M 999.332031 371.742188 C 999.050781 370.089844 997.617188 368.882812 995.9375 368.886719 L 885.859375 369.179688 C 884.492188 369.183594 882.066406 370.175781 881.839844 371.527344 L 880.746094 385.898438 L 1001.785156 385.898438 Z M 1013.988281 644.539062 C 1013.988281 641.523438 1011.546875 639.078125 1008.53125 639.078125 C 1005.515625 639.078125 1003.074219 641.523438 1003.074219 644.539062 C 1003.074219 647.550781 1005.515625 649.992188 1008.53125 649.992188 C 1011.546875 649.992188 1013.988281 647.550781 1013.988281 644.539062 Z M 1020.527344 644.539062 C 1020.527344 651.160156 1015.15625 656.535156 1008.53125 656.535156 C 1001.90625 656.535156 996.539062 651.160156 996.539062 644.539062 C 996.539062 637.910156 1001.90625 632.535156 1008.53125 632.535156 C 1015.15625 632.535156 1020.527344 637.910156 1020.527344 644.539062 Z M 1198.039062 398.917969 L 1198.039062 393.867188 L 1195.511719 393.867188 L 1195.511719 398.917969 Z M 1192.289062 398.917969 L 1192.289062 393.867188 L 1189.765625 393.867188 L 1189.765625 398.917969 Z M 1186.542969 398.917969 L 1186.542969 393.867188 L 1184.011719 393.867188 L 1184.011719 398.917969 Z M 1180.796875 398.917969 L 1180.796875 393.867188 L 1178.269531 393.867188 L 1178.269531 398.917969 Z M 1204.199219 398.917969 L 1204.199219 387.875 L 1201.671875 387.875 L 1201.671875 398.917969 Z M 1169.09375 398.917969 L 1169.09375 393.867188 L 1166.570312 393.867188 L 1166.570312 398.917969 Z M 1163.347656 398.917969 L 1163.347656 393.867188 L 1160.820312 393.867188 L 1160.820312 398.917969 Z M 1157.601562 398.917969 L 1157.601562 393.867188 L 1155.074219 393.867188 L 1155.074219 398.917969 Z M 1151.855469 398.917969 L 1151.855469 393.867188 L 1149.328125 393.867188 L 1149.328125 398.917969 Z M 1175.253906 398.917969 L 1175.253906 387.875 L 1172.730469 387.875 L 1172.730469 398.917969 Z M 1140.152344 398.917969 L 1140.152344 393.867188 L 1137.625 393.867188 L 1137.625 398.917969 Z M 1134.40625 398.917969 L 1134.40625 393.867188 L 1131.878906 393.867188 L 1131.878906 398.917969 Z M 1128.660156 398.917969 L 1128.660156 393.867188 L 1126.132812 393.867188 L 1126.132812 398.917969 Z M 1122.910156 398.917969 L 1122.910156 393.867188 L 1120.386719 393.867188 L 1120.386719 398.917969 Z M 1146.3125 398.917969 L 1146.3125 387.875 L 1143.789062 387.875 L 1143.789062 398.917969 Z M 1111.210938 398.917969 L 1111.210938 393.867188 L 1108.683594 393.867188 L 1108.683594 398.917969 Z M 1105.464844 398.917969 L 1105.464844 393.867188 L 1102.9375 393.867188 L 1102.9375 398.917969 Z M 1099.714844 398.917969 L 1099.714844 393.867188 L 1097.191406 393.867188 L 1097.191406 398.917969 Z M 1093.96875 398.917969 L 1093.96875 393.867188 L 1091.441406 393.867188 L 1091.441406 398.917969 Z M 1117.371094 398.917969 L 1117.371094 387.875 L 1114.839844 387.875 L 1114.839844 398.917969 Z M 1088.429688 398.917969 L 1088.429688 387.875 L 1085.898438 387.875 L 1085.898438 398.917969 Z M 935.6875 659.089844 L 879.019531 659.089844 C 877.625 659.089844 876.488281 660.222656 876.488281 661.617188 C 876.488281 663.011719 877.625 664.144531 879.019531 664.144531 L 935.6875 664.144531 C 937.078125 664.144531 938.214844 663.011719 938.214844 661.617188 C 938.214844 660.222656 937.078125 659.089844 935.6875 659.089844 Z M 927.410156 683.296875 C 926.597656 682.890625 925.933594 682.214844 925.570312 681.378906 C 925.367188 682.203125 924.851562 682.882812 924.15625 683.296875 C 924.851562 683.703125 925.371094 684.386719 925.574219 685.207031 C 925.941406 684.371094 926.597656 683.699219 927.410156 683.296875 Z M 927.410156 692.644531 C 926.597656 692.242188 925.933594 691.570312 925.570312 690.734375 C 925.367188 691.558594 924.851562 692.238281 924.15625 692.644531 C 924.851562 693.058594 925.371094 693.742188 925.574219 694.5625 C 925.941406 693.726562 926.597656 693.054688 927.410156 692.644531 Z M 925.246094 700.898438 C 924.976562 701.359375 924.605469 701.734375 924.15625 702 C 924.605469 702.265625 924.976562 702.644531 925.246094 703.101562 Z M 917.390625 683.296875 C 916.804688 682.949219 916.339844 682.414062 916.089844 681.753906 C 915.835938 682.414062 915.371094 682.949219 914.785156 683.296875 C 915.371094 683.636719 915.835938 684.179688 916.089844 684.832031 C 916.339844 684.179688 916.804688 683.636719 917.390625 683.296875 Z M 917.390625 692.644531 C 916.804688 692.296875 916.339844 691.761719 916.089844 691.109375 C 915.835938 691.761719 915.371094 692.296875 914.785156 692.644531 C 915.371094 692.992188 915.835938 693.527344 916.089844 694.1875 C 916.339844 693.527344 916.804688 692.992188 917.390625 692.644531 Z M 917.390625 702 C 916.804688 701.652344 916.339844 701.117188 916.089844 700.460938 C 915.835938 701.117188 915.371094 701.652344 914.785156 702 C 915.371094 702.347656 915.835938 702.882812 916.089844 703.539062 C 916.339844 702.882812 916.804688 702.347656 917.390625 702 Z M 908.023438 683.296875 C 907.328125 682.882812 906.804688 682.203125 906.605469 681.378906 C 906.238281 682.214844 905.582031 682.890625 904.769531 683.296875 C 905.582031 683.699219 906.238281 684.371094 906.605469 685.207031 C 906.804688 684.386719 907.324219 683.703125 908.023438 683.296875 Z M 908.023438 692.644531 C 907.328125 692.238281 906.804688 691.550781 906.605469 690.734375 C 906.238281 691.570312 905.582031 692.242188 904.769531 692.644531 C 905.582031 693.054688 906.238281 693.726562 906.605469 694.5625 C 906.804688 693.742188 907.324219 693.058594 908.023438 692.644531 Z M 908.023438 702 C 907.324219 701.59375 906.804688 700.90625 906.605469 700.089844 C 906.238281 700.925781 905.582031 701.597656 904.769531 702 C 905.582031 702.40625 906.238281 703.078125 906.605469 703.914062 C 906.804688 703.097656 907.324219 702.410156 908.023438 702 Z M 935.042969 677.402344 L 935.042969 679.835938 C 935.042969 681.355469 934.152344 682.65625 932.875 683.296875 C 934.152344 683.929688 935.042969 685.234375 935.042969 686.757812 L 935.042969 689.183594 C 935.042969 690.707031 934.152344 692.011719 932.875 692.644531 C 934.152344 693.28125 935.042969 694.585938 935.042969 696.113281 L 935.042969 707.890625 C 935.042969 710.03125 933.300781 711.769531 931.167969 711.769531 L 929.125 711.769531 C 927.535156 711.769531 926.171875 710.8125 925.570312 709.441406 C 925.246094 710.773438 924.074219 711.769531 922.679688 711.769531 L 918.863281 711.769531 C 917.601562 711.769531 916.527344 710.957031 916.089844 709.816406 C 915.648438 710.957031 914.574219 711.769531 913.3125 711.769531 L 909.492188 711.769531 C 908.097656 711.769531 906.933594 710.773438 906.605469 709.441406 C 906.007812 710.8125 904.640625 711.769531 903.054688 711.769531 L 901.011719 711.769531 C 898.875 711.769531 897.132812 710.03125 897.132812 707.890625 L 897.132812 705.464844 C 897.132812 703.941406 898.023438 702.636719 899.296875 702 C 898.023438 701.367188 897.132812 700.0625 897.132812 698.539062 L 897.132812 696.113281 C 897.132812 694.585938 898.023438 693.28125 899.296875 692.644531 C 898.023438 692.011719 897.132812 690.707031 897.132812 689.183594 L 897.132812 686.757812 C 897.132812 685.234375 898.023438 683.929688 899.296875 683.296875 C 898.023438 682.65625 897.132812 681.355469 897.132812 679.835938 L 897.132812 677.402344 C 897.132812 675.265625 898.875 673.523438 901.011719 673.523438 L 903.054688 673.523438 C 904.640625 673.523438 906.007812 674.484375 906.605469 675.851562 C 906.933594 674.519531 908.097656 673.523438 909.492188 673.523438 L 913.3125 673.523438 C 914.574219 673.523438 915.648438 674.335938 916.089844 675.480469 C 916.527344 674.335938 917.601562 673.523438 918.863281 673.523438 L 922.679688 673.523438 C 924.074219 673.523438 925.246094 674.519531 925.570312 675.851562 C 926.171875 674.484375 927.535156 673.523438 929.125 673.523438 L 931.167969 673.523438 C 933.300781 673.523438 935.042969 675.265625 935.042969 677.402344 Z M 890.8125 667.121094 L 885.089844 667.121094 C 882.953125 667.121094 881.214844 668.863281 881.214844 671 L 881.214844 674.867188 C 881.214844 676.527344 882.269531 677.933594 883.738281 678.484375 C 882.269531 679.039062 881.214844 680.449219 881.214844 682.105469 L 881.214844 685.972656 C 881.214844 687.628906 882.269531 689.039062 883.738281 689.59375 C 882.269531 690.144531 881.214844 691.550781 881.214844 693.214844 L 881.214844 697.078125 C 881.214844 698.738281 882.269531 700.148438 883.738281 700.695312 C 882.269531 701.25 881.214844 702.660156 881.214844 704.320312 L 881.214844 708.183594 C 881.214844 710.324219 882.953125 712.0625 885.089844 712.0625 L 890.8125 712.0625 C 892.957031 712.0625 894.691406 710.324219 894.691406 708.183594 L 894.691406 704.320312 C 894.691406 702.660156 893.636719 701.25 892.167969 700.695312 C 893.636719 700.148438 894.691406 698.738281 894.691406 697.078125 L 894.691406 693.214844 C 894.691406 691.550781 893.640625 690.144531 892.171875 689.59375 C 893.640625 689.039062 894.691406 687.628906 894.691406 685.972656 L 894.691406 682.105469 C 894.691406 680.449219 893.640625 679.039062 892.171875 678.484375 C 893.640625 677.933594 894.691406 676.527344 894.691406 674.867188 L 894.691406 671 C 894.691406 668.863281 892.957031 667.121094 890.8125 667.121094 Z M 883.652344 658.25 L 883.652344 641.429688 L 934.671875 641.429688 L 934.671875 658.25 L 883.652344 658.25 " fill-opacity="1" fill-rule="nonzero"/><g clip-path="url(#id3)"><path fill="rgb(7.839966%, 12.159729%, 20.779419%)" d="M 900.585938 582.554688 L 896.792969 582.554688 C 896.097656 582.554688 895.527344 581.992188 895.527344 581.292969 C 895.527344 580.59375 896.097656 580.027344 896.792969 580.027344 L 900.585938 580.027344 C 901.28125 580.027344 901.847656 580.59375 901.847656 581.292969 C 901.847656 581.992188 901.28125 582.554688 900.585938 582.554688 Z M 915.171875 582.554688 L 907.878906 582.554688 C 907.175781 582.554688 906.613281 581.992188 906.613281 581.292969 C 906.613281 580.59375 907.175781 580.027344 907.878906 580.027344 L 915.171875 580.027344 C 915.875 580.027344 916.4375 580.59375 916.4375 581.292969 C 916.4375 581.992188 915.875 582.554688 915.171875 582.554688 Z M 929.765625 582.554688 L 922.46875 582.554688 C 921.769531 582.554688 921.207031 581.992188 921.207031 581.292969 C 921.207031 580.59375 921.769531 580.027344 922.46875 580.027344 L 929.765625 580.027344 C 930.460938 580.027344 931.03125 580.59375 931.03125 581.292969 C 931.03125 581.992188 930.460938 582.554688 929.765625 582.554688 Z M 944.355469 582.554688 L 937.058594 582.554688 C 936.363281 582.554688 935.796875 581.992188 935.796875 581.292969 C 935.796875 580.59375 936.363281 580.027344 937.058594 580.027344 L 944.355469 580.027344 C 945.054688 580.027344 945.617188 580.59375 945.617188 581.292969 C 945.617188 581.992188 945.054688 582.554688 944.355469 582.554688 Z M 958.949219 582.554688 L 951.652344 582.554688 C 950.953125 582.554688 950.390625 581.992188 950.390625 581.292969 C 950.390625 580.59375 950.953125 580.027344 951.652344 580.027344 L 958.949219 580.027344 C 959.644531 580.027344 960.210938 580.59375 960.210938 581.292969 C 960.210938 581.992188 959.644531 582.554688 958.949219 582.554688 Z M 973.539062 582.554688 L 966.242188 582.554688 C 965.546875 582.554688 964.976562 581.992188 964.976562 581.292969 C 964.976562 580.59375 965.546875 580.027344 966.242188 580.027344 L 973.539062 580.027344 C 974.238281 580.027344 974.800781 580.59375 974.800781 581.292969 C 974.800781 581.992188 974.238281 582.554688 973.539062 582.554688 Z M 988.128906 582.554688 L 980.832031 582.554688 C 980.132812 582.554688 979.570312 581.992188 979.570312 581.292969 C 979.570312 580.59375 980.132812 580.027344 980.832031 580.027344 L 988.128906 580.027344 C 988.824219 580.027344 989.394531 580.59375 989.394531 581.292969 C 989.394531 581.992188 988.824219 582.554688 988.128906 582.554688 Z M 1002.71875 582.554688 L 995.425781 582.554688 C 994.726562 582.554688 994.160156 581.992188 994.160156 581.292969 C 994.160156 580.59375 994.726562 580.027344 995.425781 580.027344 L 1002.71875 580.027344 C 1003.417969 580.027344 1003.988281 580.59375 1003.988281 581.292969 C 1003.988281 581.992188 1003.417969 582.554688 1002.71875 582.554688 Z M 1017.3125 582.554688 L 1010.015625 582.554688 C 1009.316406 582.554688 1008.753906 581.992188 1008.753906 581.292969 C 1008.753906 580.59375 1009.316406 580.027344 1010.015625 580.027344 L 1017.3125 580.027344 C 1018.011719 580.027344 1018.574219 580.59375 1018.574219 581.292969 C 1018.574219 581.992188 1018.011719 582.554688 1017.3125 582.554688 Z M 1031.902344 582.554688 L 1024.609375 582.554688 C 1023.910156 582.554688 1023.339844 581.992188 1023.339844 581.292969 C 1023.339844 580.59375 1023.910156 580.027344 1024.609375 580.027344 L 1031.902344 580.027344 C 1032.601562 580.027344 1033.167969 580.59375 1033.167969 581.292969 C 1033.167969 581.992188 1032.601562 582.554688 1031.902344 582.554688 Z M 1046.496094 582.554688 L 1039.199219 582.554688 C 1038.503906 582.554688 1037.933594 581.992188 1037.933594 581.292969 C 1037.933594 580.59375 1038.503906 580.027344 1039.199219 580.027344 L 1046.496094 580.027344 C 1047.195312 580.027344 1047.757812 580.59375 1047.757812 581.292969 C 1047.757812 581.992188 1047.195312 582.554688 1046.496094 582.554688 Z M 1057.578125 582.554688 L 1053.789062 582.554688 C 1053.089844 582.554688 1052.527344 581.992188 1052.527344 581.292969 C 1052.527344 580.59375 1053.089844 580.027344 1053.789062 580.027344 L 1057.578125 580.027344 C 1058.28125 580.027344 1058.84375 580.59375 1058.84375 581.292969 C 1058.84375 581.992188 1058.28125 582.554688 1057.578125 582.554688 Z M 1066.425781 580.027344 L 1094.804688 580.027344 L 1094.804688 510.464844 L 1066.425781 510.464844 Z M 1096.066406 582.554688 L 1065.164062 582.554688 C 1064.464844 582.554688 1063.898438 581.992188 1063.898438 581.292969 L 1063.898438 509.199219 C 1063.898438 508.5 1064.464844 507.9375 1065.164062 507.9375 L 1096.066406 507.9375 C 1096.769531 507.9375 1097.332031 508.5 1097.332031 509.199219 L 1097.332031 581.292969 C 1097.332031 581.992188 1096.769531 582.554688 1096.066406 582.554688 Z M 1065.164062 490.242188 C 1064.464844 490.242188 1063.898438 489.675781 1063.898438 488.976562 L 1063.898438 458.21875 L 889.320312 458.21875 C 888.621094 458.21875 888.058594 457.65625 888.058594 456.957031 C 888.058594 456.257812 888.621094 455.695312 889.320312 455.695312 L 1065.164062 455.695312 C 1065.863281 455.695312 1066.425781 456.257812 1066.425781 456.957031 L 1066.425781 488.976562 C 1066.425781 489.675781 1065.863281 490.242188 1065.164062 490.242188 Z M 948.375 557.914062 C 947.679688 557.914062 947.113281 557.347656 947.113281 556.648438 L 947.113281 524.078125 L 889.320312 524.078125 C 888.621094 524.078125 888.058594 523.511719 888.058594 522.8125 C 888.058594 522.117188 888.621094 521.554688 889.320312 521.554688 L 948.375 521.554688 C 949.074219 521.554688 949.640625 522.117188 949.640625 522.8125 L 949.640625 556.648438 C 949.640625 557.347656 949.074219 557.914062 948.375 557.914062 Z M 1065.164062 557.914062 L 1038.375 557.914062 C 1037.675781 557.914062 1037.109375 557.347656 1037.109375 556.648438 C 1037.109375 555.949219 1037.675781 555.386719 1038.375 555.386719 L 1063.898438 555.386719 L 1063.898438 490.242188 L 982.128906 490.242188 C 981.433594 490.242188 980.867188 489.675781 980.867188 488.976562 C 980.867188 488.277344 981.433594 487.714844 982.128906 487.714844 L 1065.164062 487.714844 C 1065.863281 487.714844 1066.425781 488.277344 1066.425781 488.976562 L 1066.425781 556.648438 C 1066.425781 557.347656 1065.863281 557.914062 1065.164062 557.914062 Z M 1023.890625 557.914062 L 889.320312 557.914062 C 888.621094 557.914062 888.058594 557.347656 888.058594 556.648438 C 888.058594 555.949219 888.621094 555.386719 889.320312 555.386719 L 1023.890625 555.386719 C 1024.589844 555.386719 1025.160156 555.949219 1025.160156 556.648438 C 1025.160156 557.347656 1024.589844 557.914062 1023.890625 557.914062 Z M 936.265625 507.8125 C 935.566406 507.8125 935.003906 507.242188 935.003906 506.546875 L 935.003906 466.933594 C 935.003906 466.234375 935.566406 465.667969 936.265625 465.667969 C 936.960938 465.667969 937.527344 466.234375 937.527344 466.933594 L 937.527344 506.546875 C 937.527344 507.242188 936.960938 507.8125 936.265625 507.8125 Z M 982.128906 507.8125 L 958.925781 507.8125 C 958.226562 507.8125 957.664062 507.242188 957.664062 506.546875 C 957.664062 505.847656 958.226562 505.285156 958.925781 505.285156 L 982.128906 505.285156 C 982.828125 505.285156 983.394531 505.847656 983.394531 506.546875 C 983.394531 507.242188 982.828125 507.8125 982.128906 507.8125 Z M 948.375 507.8125 L 925.171875 507.8125 C 924.46875 507.8125 923.90625 507.242188 923.90625 506.546875 C 923.90625 505.847656 924.46875 505.285156 925.171875 505.285156 L 948.375 505.285156 C 949.074219 505.285156 949.640625 505.847656 949.640625 506.546875 C 949.640625 507.242188 949.074219 507.8125 948.375 507.8125 Z M 912.527344 507.8125 L 889.320312 507.8125 C 888.621094 507.8125 888.058594 507.242188 888.058594 506.546875 C 888.058594 505.847656 888.621094 505.285156 889.320312 505.285156 L 912.527344 505.285156 C 913.226562 505.285156 913.789062 505.847656 913.789062 506.546875 C 913.789062 507.242188 913.226562 507.8125 912.527344 507.8125 Z M 982.128906 507.8125 C 981.433594 507.8125 980.867188 507.242188 980.867188 506.546875 L 980.867188 468.195312 L 889.320312 468.195312 C 888.621094 468.195312 888.058594 467.628906 888.058594 466.933594 C 888.058594 466.234375 888.621094 465.667969 889.320312 465.667969 L 982.128906 465.667969 C 982.828125 465.667969 983.394531 466.234375 983.394531 466.933594 L 983.394531 506.546875 C 983.394531 507.242188 982.828125 507.8125 982.128906 507.8125 Z M 889.320312 582.554688 C 888.621094 582.554688 888.058594 581.992188 888.058594 581.292969 L 888.058594 453.179688 C 888.058594 452.480469 888.621094 451.917969 889.320312 451.917969 C 890.015625 451.917969 890.585938 452.480469 890.585938 453.179688 L 890.585938 581.292969 C 890.585938 581.992188 890.015625 582.554688 889.320312 582.554688 Z M 1299.042969 449.625 C 1299.710938 449.410156 1300.074219 448.695312 1299.863281 448.035156 C 1299.652344 447.367188 1298.933594 447.011719 1298.269531 447.214844 C 1298.191406 447.246094 1290.472656 449.851562 1293.148438 458.984375 C 1293.308594 459.539062 1293.8125 459.898438 1294.359375 459.898438 C 1294.476562 459.898438 1294.597656 459.878906 1294.714844 459.84375 C 1295.386719 459.648438 1295.773438 458.945312 1295.574219 458.277344 C 1293.632812 451.648438 1298.492188 449.808594 1299.042969 449.625 Z M 1261.589844 451.015625 C 1260.886719 449.222656 1259.566406 447.730469 1257.875 446.8125 C 1256.183594 445.890625 1254.214844 445.597656 1252.320312 445.984375 C 1251.640625 446.121094 1251.199219 446.789062 1251.335938 447.476562 C 1251.476562 448.160156 1252.140625 448.597656 1252.828125 448.460938 C 1254.113281 448.199219 1255.515625 448.410156 1256.667969 449.035156 C 1257.824219 449.660156 1258.761719 450.71875 1259.242188 451.941406 C 1259.433594 452.4375 1259.914062 452.746094 1260.414062 452.746094 C 1260.570312 452.746094 1260.726562 452.714844 1260.878906 452.65625 C 1261.527344 452.402344 1261.847656 451.667969 1261.589844 451.015625 Z M 1242.230469 420.957031 C 1242.324219 420.957031 1242.414062 420.949219 1242.507812 420.925781 L 1253.199219 418.550781 C 1255.078125 418.132812 1256.679688 416.835938 1257.480469 415.082031 L 1266.871094 394.546875 C 1267.164062 393.910156 1266.886719 393.160156 1266.246094 392.867188 C 1265.613281 392.578125 1264.863281 392.859375 1264.574219 393.492188 L 1255.183594 414.03125 C 1254.710938 415.070312 1253.761719 415.835938 1252.648438 416.082031 L 1241.957031 418.460938 C 1241.277344 418.609375 1240.851562 419.285156 1241 419.96875 C 1241.132812 420.558594 1241.652344 420.957031 1242.230469 420.957031 Z M 1249.125 483.238281 C 1248.4375 483.195312 1247.824219 483.707031 1247.765625 484.402344 C 1247.714844 485.097656 1248.234375 485.710938 1248.929688 485.761719 C 1249.292969 485.789062 1249.648438 485.804688 1250.011719 485.804688 C 1253.992188 485.804688 1257.898438 484.117188 1260.621094 481.183594 C 1261.09375 480.667969 1261.0625 479.871094 1260.550781 479.398438 C 1260.039062 478.921875 1259.242188 478.949219 1258.769531 479.460938 C 1256.355469 482.066406 1252.671875 483.519531 1249.125 483.238281 Z M 1335.914062 445.09375 C 1336.152344 445.472656 1336.5625 445.679688 1336.980469 445.679688 C 1337.214844 445.679688 1337.445312 445.621094 1337.65625 445.484375 C 1338.246094 445.113281 1338.421875 444.328125 1338.042969 443.742188 L 1331.164062 432.890625 L 1331.164062 410.507812 C 1331.164062 409.808594 1330.601562 409.246094 1329.902344 409.246094 C 1329.203125 409.246094 1328.640625 409.808594 1328.640625 410.507812 L 1328.640625 433.257812 C 1328.640625 433.5 1328.707031 433.734375 1328.835938 433.933594 Z M 1227.859375 425.554688 C 1227.175781 425.703125 1226.742188 426.378906 1226.890625 427.058594 C 1227.039062 427.742188 1227.710938 428.171875 1228.394531 428.027344 C 1228.742188 427.953125 1263.417969 420.558594 1288.152344 429.140625 C 1315.449219 438.609375 1330.574219 455.515625 1330.722656 455.683594 C 1330.972656 455.964844 1331.320312 456.113281 1331.671875 456.113281 C 1331.96875 456.113281 1332.265625 456.007812 1332.503906 455.796875 C 1333.03125 455.332031 1333.082031 454.539062 1332.621094 454.011719 C 1332.464844 453.839844 1316.9375 436.453125 1288.984375 426.75 C 1263.558594 417.929688 1229.300781 425.238281 1227.859375 425.554688 Z M 1259.871094 458.332031 C 1259.871094 456.40625 1258.847656 454.847656 1257.59375 454.847656 C 1256.335938 454.847656 1255.316406 456.40625 1255.316406 458.332031 C 1255.316406 460.253906 1256.335938 461.8125 1257.59375 461.8125 C 1258.847656 461.8125 1259.871094 460.253906 1259.871094 458.332031 Z M 1294.320312 497.464844 C 1280.675781 506.941406 1267.035156 505.453125 1267.035156 505.453125 C 1267.035156 505.453125 1271.097656 516.457031 1271.234375 516.425781 C 1284.367188 513.105469 1294.320312 497.464844 1294.320312 497.464844 Z M 1287.957031 439.003906 C 1286.90625 447.027344 1282.113281 457.40625 1285.4375 462.976562 L 1292.25 464.371094 C 1290.941406 460.441406 1291.386719 452.609375 1291.386719 452.609375 C 1293.3125 442.957031 1303.773438 442.222656 1304.859375 450.617188 C 1305.527344 455.828125 1302.644531 460.757812 1299.5 463.71875 C 1301.339844 470.09375 1302.730469 483.539062 1306.074219 481.847656 C 1306.269531 481.746094 1316.953125 486.761719 1322.746094 469.007812 L 1322.59375 465.640625 C 1322.320312 459.757812 1320.234375 454.101562 1316.625 449.453125 L 1313.167969 445 C 1307.628906 441.566406 1300.476562 437.761719 1291.316406 433.933594 C 1284.292969 431 1276.960938 429.121094 1269.851562 427.957031 C 1261.4375 427.863281 1249.15625 428.675781 1244.390625 433.015625 C 1242.710938 434.539062 1241.050781 441.917969 1243.390625 442.042969 C 1253.417969 442.578125 1272.914062 437.359375 1287.957031 439.003906 Z M 1439.746094 647.347656 C 1439.746094 647.347656 1429.5 558.679688 1382.976562 525.460938 C 1382.976562 525.460938 1381.597656 524.863281 1377.941406 523.984375 L 1378.027344 536.226562 L 1378.53125 613.359375 C 1389.449219 630.359375 1400.515625 653.480469 1400.515625 653.480469 L 1400.046875 693.652344 L 1401.0625 694.210938 C 1409.207031 695.429688 1415.765625 701.542969 1417.5625 709.582031 L 1419.136719 716.636719 C 1419.601562 717.296875 1419.75 718.109375 1419.714844 718.96875 C 1423.59375 713.25 1440.296875 686.296875 1439.746094 647.347656 Z M 1322.882812 519.523438 C 1323.214844 519.917969 1323.53125 520.328125 1323.878906 520.710938 C 1319.03125 543.117188 1294.015625 558.304688 1279.109375 555.34375 C 1264.203125 552.378906 1272.691406 531.335938 1272.691406 531.332031 C 1272.460938 529.042969 1272.210938 526.652344 1271.914062 524.257812 C 1270.855469 524.398438 1269.8125 524.539062 1268.773438 524.679688 C 1268.289062 541.6875 1267.308594 596.691406 1272.332031 660.011719 C 1288.789062 658.464844 1302.109375 654.402344 1312.75 649.390625 C 1310.089844 603.578125 1312.113281 555.488281 1325.554688 519.429688 C 1324.667969 519.457031 1323.78125 519.488281 1322.882812 519.523438 Z M 1377.941406 523.984375 C 1375.105469 523.304688 1370.894531 522.453125 1364.878906 521.585938 Z M 1377.941406 523.984375 Z M 1334.011719 793.234375 C 1334.011719 793.234375 1330.558594 779.179688 1326.375 756.871094 C 1312.707031 758.097656 1299.515625 758.023438 1288.570312 755.664062 C 1287.289062 755.386719 1285.992188 755.152344 1284.691406 754.9375 C 1287.335938 768.640625 1290.382812 782.074219 1293.917969 794.9375 L 1393.09375 794.878906 L 1386.109375 782.621094 Z M 1220.527344 658.761719 C 1215.679688 578.066406 1223.371094 544.148438 1226.289062 534.582031 C 1226.929688 532.484375 1227.339844 531.542969 1227.339844 531.542969 L 1229.53125 530.898438 C 1227.289062 531.308594 1226.054688 531.542969 1226.054688 531.542969 C 1226.054688 531.542969 1211.316406 534.339844 1203.757812 558.847656 C 1195.125 586.828125 1185.796875 628.519531 1173.167969 661.011719 C 1187.402344 659.308594 1203.335938 658.339844 1220.527344 658.761719 Z M 1001.53125 385.714844 C 1001.53125 385.015625 1000.964844 384.453125 1000.269531 384.453125 L 984.167969 384.453125 C 984.171875 384.386719 984.1875 384.320312 984.1875 384.253906 L 984.1875 369.222656 C 984.1875 368.023438 983.214844 367.058594 982.015625 367.058594 L 977.6875 367.058594 C 976.492188 367.058594 975.519531 368.023438 975.519531 369.222656 L 975.519531 384.253906 C 975.519531 384.320312 975.53125 384.386719 975.542969 384.453125 L 974.832031 384.453125 C 974.132812 384.453125 973.566406 385.015625 973.566406 385.714844 C 973.566406 386.414062 974.132812 386.980469 974.832031 386.980469 L 1000.269531 386.980469 C 1000.964844 386.980469 1001.53125 386.414062 1001.53125 385.714844 Z M 966.953125 384.453125 L 907.054688 384.453125 C 907.113281 384.261719 907.148438 384.058594 907.148438 383.847656 L 907.148438 368.8125 C 907.148438 367.621094 906.175781 366.648438 904.984375 366.648438 L 900.652344 366.648438 C 899.453125 366.648438 898.488281 367.621094 898.488281 368.8125 L 898.488281 383.847656 C 898.488281 384.058594 898.523438 384.261719 898.582031 384.453125 L 884.246094 384.453125 C 883.546875 384.453125 882.980469 385.015625 882.980469 385.714844 C 882.980469 386.414062 883.546875 386.980469 884.246094 386.980469 L 966.953125 386.980469 C 967.648438 386.980469 968.21875 386.414062 968.21875 385.714844 C 968.21875 385.015625 967.648438 384.453125 966.953125 384.453125 Z M 921.414062 356.925781 C 921.488281 356.9375 921.5625 356.945312 921.640625 356.945312 C 922.242188 356.945312 922.769531 356.511719 922.878906 355.902344 L 925.625 340.46875 C 925.746094 339.785156 925.289062 339.125 924.601562 339.003906 C 923.90625 338.878906 923.257812 339.339844 923.136719 340.027344 L 920.390625 355.460938 C 920.273438 356.148438 920.726562 356.800781 921.414062 356.925781 Z M 925.15625 335.898438 C 925.839844 336.023438 926.5 335.566406 926.621094 334.875 L 928.464844 324.507812 C 928.476562 324.453125 928.480469 324.402344 928.484375 324.351562 C 928.566406 322.835938 929.820312 321.652344 931.332031 321.652344 L 933.726562 321.652344 L 933.726562 346.078125 C 933.726562 347.386719 934.785156 348.453125 936.101562 348.453125 L 946.605469 348.453125 C 947.917969 348.453125 948.984375 347.386719 948.984375 346.078125 L 948.984375 321.652344 L 951.304688 321.652344 C 952.839844 321.652344 954.09375 322.851562 954.15625 324.390625 C 954.160156 324.449219 954.164062 324.515625 954.179688 324.578125 L 960.46875 357.273438 C 960.585938 357.875 961.117188 358.296875 961.710938 358.296875 C 961.789062 358.296875 961.871094 358.289062 961.949219 358.273438 C 962.632812 358.144531 963.085938 357.480469 962.953125 356.796875 L 956.675781 324.1875 C 956.507812 321.339844 954.167969 319.125 951.304688 319.125 L 948.984375 319.125 L 948.984375 318.246094 C 948.984375 316.929688 947.917969 315.863281 946.605469 315.863281 L 936.101562 315.863281 C 934.785156 315.863281 933.726562 316.929688 933.726562 318.246094 L 933.726562 319.125 L 931.332031 319.125 C 928.5 319.125 926.160156 321.316406 925.964844 324.136719 L 924.132812 334.433594 C 924.011719 335.121094 924.464844 335.777344 925.15625 335.898438 Z M 1024.957031 740.523438 L 1013.894531 656.335938 C 1014.941406 655.589844 1015.808594 654.625 1016.46875 653.519531 C 1014.355469 655.390625 1011.578125 656.535156 1008.53125 656.535156 C 1005.480469 656.535156 1002.703125 655.382812 1000.585938 653.511719 C 1001.164062 654.488281 1001.910156 655.351562 1002.792969 656.054688 L 991.566406 739.253906 L 994.945312 753.125 L 1008.292969 676.683594 L 1021.582031 754.386719 Z M 1013.71875 633.730469 L 1013.71875 631.414062 C 1013.71875 630.707031 1013.183594 630.148438 1012.503906 630.0625 L 1012.503906 613.792969 C 1012.503906 612.144531 1011.171875 610.808594 1009.527344 610.808594 L 1007.542969 610.808594 C 1005.894531 610.808594 1004.558594 612.144531 1004.558594 613.792969 L 1004.558594 630.0625 C 1003.878906 630.148438 1003.347656 630.707031 1003.347656 631.414062 L 1003.347656 633.730469 C 1004.917969 632.972656 1006.671875 632.535156 1008.53125 632.535156 C 1010.394531 632.535156 1012.148438 632.972656 1013.71875 633.730469 Z M 1159.671875 381.183594 L 1095.03125 354.582031 L 1095.207031 380.832031 Z M 1175.253906 387.875 L 1172.730469 387.875 L 1172.730469 398.917969 L 1169.09375 398.917969 L 1169.09375 393.867188 L 1166.570312 393.867188 L 1166.570312 398.917969 L 1163.347656 398.917969 L 1163.347656 393.867188 L 1160.820312 393.867188 L 1160.820312 398.917969 L 1157.601562 398.917969 L 1157.601562 393.867188 L 1155.074219 393.867188 L 1155.074219 398.917969 L 1151.855469 398.917969 L 1151.855469 393.867188 L 1149.328125 393.867188 L 1149.328125 398.917969 L 1146.3125 398.917969 L 1146.3125 387.875 L 1143.789062 387.875 L 1143.789062 398.917969 L 1140.152344 398.917969 L 1140.152344 393.867188 L 1137.625 393.867188 L 1137.625 398.917969 L 1134.40625 398.917969 L 1134.40625 393.867188 L 1131.878906 393.867188 L 1131.878906 398.917969 L 1128.660156 398.917969 L 1128.660156 393.867188 L 1126.132812 393.867188 L 1126.132812 398.917969 L 1122.910156 398.917969 L 1122.910156 393.867188 L 1120.386719 393.867188 L 1120.386719 398.917969 L 1117.371094 398.917969 L 1117.371094 387.875 L 1114.839844 387.875 L 1114.839844 398.917969 L 1111.210938 398.917969 L 1111.210938 393.867188 L 1108.683594 393.867188 L 1108.683594 398.917969 L 1105.464844 398.917969 L 1105.464844 393.867188 L 1102.9375 393.867188 L 1102.9375 398.917969 L 1099.714844 398.917969 L 1099.714844 393.867188 L 1097.191406 393.867188 L 1097.191406 398.917969 L 1093.96875 398.917969 L 1093.96875 393.867188 L 1091.441406 393.867188 L 1091.441406 398.917969 L 1088.429688 398.917969 L 1088.429688 387.875 L 1085.898438 387.875 L 1085.898438 398.917969 L 1073.773438 398.917969 L 1073.308594 322.339844 L 1238.167969 398.917969 L 1204.199219 398.917969 L 1204.199219 387.875 L 1201.671875 387.875 L 1201.671875 398.917969 L 1198.039062 398.917969 L 1198.039062 393.867188 L 1195.511719 393.867188 L 1195.511719 398.917969 L 1192.289062 398.917969 L 1192.289062 393.867188 L 1189.765625 393.867188 L 1189.765625 398.917969 L 1186.542969 398.917969 L 1186.542969 393.867188 L 1184.011719 393.867188 L 1184.011719 398.917969 L 1180.796875 398.917969 L 1180.796875 393.867188 L 1178.269531 393.867188 L 1178.269531 398.917969 L 1175.253906 398.917969 Z M 936.949219 661.617188 C 936.949219 660.921875 936.382812 660.351562 935.6875 660.351562 L 879.019531 660.351562 C 878.320312 660.351562 877.757812 660.921875 877.757812 661.617188 C 877.757812 662.316406 878.320312 662.878906 879.019531 662.878906 L 935.6875 662.878906 C 936.382812 662.878906 936.949219 662.316406 936.949219 661.617188 Z M 933.777344 677.402344 C 933.777344 675.960938 932.609375 674.785156 931.167969 674.785156 L 929.125 674.785156 C 927.675781 674.785156 926.507812 675.960938 926.507812 677.402344 L 926.507812 679.835938 C 926.507812 681.277344 927.675781 682.445312 929.125 682.445312 L 931.167969 682.445312 C 932.609375 682.445312 933.777344 681.277344 933.777344 679.835938 Z M 933.777344 686.757812 C 933.777344 685.308594 932.609375 684.140625 931.167969 684.140625 L 929.125 684.140625 C 927.675781 684.140625 926.507812 685.308594 926.507812 686.757812 L 926.507812 689.183594 C 926.507812 690.625 927.675781 691.800781 929.125 691.800781 L 931.167969 691.800781 C 932.609375 691.800781 933.777344 690.625 933.777344 689.183594 Z M 933.777344 696.109375 C 933.777344 694.664062 932.609375 693.496094 931.167969 693.496094 L 929.125 693.496094 C 927.675781 693.496094 926.507812 694.664062 926.507812 696.109375 L 926.507812 707.890625 C 926.507812 709.335938 927.675781 710.507812 929.125 710.507812 L 931.167969 710.507812 C 932.609375 710.507812 933.777344 709.335938 933.777344 707.890625 Z M 926.714844 670.914062 L 931.785156 670.914062 C 932.402344 670.914062 932.898438 670.417969 932.898438 669.800781 L 932.898438 669.210938 C 932.898438 668.59375 932.402344 668.09375 931.785156 668.09375 L 926.714844 668.09375 C 926.09375 668.09375 925.597656 668.59375 925.597656 669.210938 L 925.597656 669.800781 C 925.597656 670.417969 926.09375 670.914062 926.714844 670.914062 Z M 924.410156 676.609375 C 924.410156 675.601562 923.636719 674.785156 922.679688 674.785156 L 918.863281 674.785156 C 917.910156 674.785156 917.136719 675.601562 917.136719 676.609375 L 917.136719 680.628906 C 917.136719 681.632812 917.910156 682.445312 918.863281 682.445312 L 922.679688 682.445312 C 923.636719 682.445312 924.410156 681.632812 924.410156 680.628906 Z M 924.410156 685.957031 C 924.410156 684.953125 923.636719 684.140625 922.679688 684.140625 L 918.863281 684.140625 C 917.910156 684.140625 917.136719 684.953125 917.136719 685.957031 L 917.136719 689.984375 C 917.136719 690.988281 917.910156 691.800781 918.863281 691.800781 L 922.679688 691.800781 C 923.636719 691.800781 924.410156 690.988281 924.410156 689.984375 Z M 924.410156 695.3125 C 924.410156 694.308594 923.636719 693.496094 922.679688 693.496094 L 918.863281 693.496094 C 917.910156 693.496094 917.136719 694.308594 917.136719 695.3125 L 917.136719 699.335938 C 917.136719 700.339844 917.910156 701.152344 918.863281 701.152344 L 922.679688 701.152344 C 923.636719 701.152344 924.410156 700.339844 924.410156 699.335938 Z M 918.117188 670.914062 L 923.183594 670.914062 C 923.804688 670.914062 924.300781 670.417969 924.300781 669.800781 L 924.300781 669.210938 C 924.300781 668.59375 923.804688 668.09375 923.183594 668.09375 L 918.117188 668.09375 C 917.496094 668.09375 917 668.59375 917 669.210938 L 917 669.800781 C 917 670.417969 917.496094 670.914062 918.117188 670.914062 Z M 924.410156 704.667969 C 924.410156 703.664062 923.636719 702.847656 922.679688 702.847656 L 918.863281 702.847656 C 917.910156 702.847656 917.136719 703.664062 917.136719 704.667969 L 917.136719 708.691406 C 917.136719 709.695312 917.910156 710.507812 918.863281 710.507812 L 922.679688 710.507812 C 923.636719 710.507812 924.410156 709.695312 924.410156 708.691406 Z M 915.054688 669.210938 C 915.054688 668.59375 914.558594 668.09375 913.9375 668.09375 L 908.871094 668.09375 C 908.253906 668.09375 907.753906 668.59375 907.753906 669.210938 L 907.753906 669.800781 C 907.753906 670.417969 908.253906 670.914062 908.871094 670.914062 L 913.9375 670.914062 C 914.558594 670.914062 915.054688 670.417969 915.054688 669.800781 Z M 915.039062 676.609375 C 915.039062 675.601562 914.265625 674.785156 913.3125 674.785156 L 909.492188 674.785156 C 908.539062 674.785156 907.769531 675.601562 907.769531 676.609375 L 907.769531 680.628906 C 907.769531 681.632812 908.539062 682.445312 909.492188 682.445312 L 913.3125 682.445312 C 914.265625 682.445312 915.039062 681.632812 915.039062 680.628906 Z M 915.039062 685.957031 C 915.039062 684.953125 914.265625 684.140625 913.3125 684.140625 L 909.492188 684.140625 C 908.539062 684.140625 907.769531 684.953125 907.769531 685.957031 L 907.769531 689.984375 C 907.769531 690.988281 908.539062 691.800781 909.492188 691.800781 L 913.3125 691.800781 C 914.265625 691.800781 915.039062 690.988281 915.039062 689.984375 Z M 915.039062 695.3125 C 915.039062 694.308594 914.265625 693.496094 913.3125 693.496094 L 909.492188 693.496094 C 908.539062 693.496094 907.769531 694.308594 907.769531 695.3125 L 907.769531 699.335938 C 907.769531 700.339844 908.539062 701.152344 909.492188 701.152344 L 913.3125 701.152344 C 914.265625 701.152344 915.039062 700.339844 915.039062 699.335938 Z M 915.039062 704.667969 C 915.039062 703.664062 914.265625 702.847656 913.3125 702.847656 L 909.492188 702.847656 C 908.539062 702.847656 907.769531 703.664062 907.769531 704.667969 L 907.769531 708.691406 C 907.769531 709.695312 908.539062 710.507812 909.492188 710.507812 L 913.3125 710.507812 C 914.265625 710.507812 915.039062 709.695312 915.039062 708.691406 Z M 906.460938 669.210938 C 906.460938 668.59375 905.960938 668.09375 905.339844 668.09375 L 900.269531 668.09375 C 899.65625 668.09375 899.15625 668.59375 899.15625 669.210938 L 899.15625 669.800781 C 899.15625 670.417969 899.65625 670.914062 900.269531 670.914062 L 905.339844 670.914062 C 905.960938 670.914062 906.460938 670.417969 906.460938 669.800781 Z M 905.671875 677.402344 C 905.671875 675.960938 904.496094 674.785156 903.054688 674.785156 L 901.011719 674.785156 C 899.566406 674.785156 898.398438 675.960938 898.398438 677.402344 L 898.398438 679.835938 C 898.398438 681.277344 899.566406 682.445312 901.011719 682.445312 L 903.054688 682.445312 C 904.496094 682.445312 905.671875 681.277344 905.671875 679.835938 Z M 905.671875 686.757812 C 905.671875 685.308594 904.496094 684.140625 903.054688 684.140625 L 901.011719 684.140625 C 899.566406 684.140625 898.398438 685.308594 898.398438 686.757812 L 898.398438 689.183594 C 898.398438 690.625 899.566406 691.800781 901.011719 691.800781 L 903.054688 691.800781 C 904.496094 691.800781 905.671875 690.625 905.671875 689.183594 Z M 905.671875 696.109375 C 905.671875 694.664062 904.496094 693.496094 903.054688 693.496094 L 901.011719 693.496094 C 899.566406 693.496094 898.398438 694.664062 898.398438 696.109375 L 898.398438 698.539062 C 898.398438 699.980469 899.566406 701.152344 901.011719 701.152344 L 903.054688 701.152344 C 904.496094 701.152344 905.671875 699.980469 905.671875 698.539062 Z M 905.671875 705.464844 C 905.671875 704.019531 904.496094 702.847656 903.054688 702.847656 L 901.011719 702.847656 C 899.566406 702.847656 898.398438 704.019531 898.398438 705.464844 L 898.398438 707.890625 C 898.398438 709.335938 899.566406 710.507812 901.011719 710.507812 L 903.054688 710.507812 C 904.496094 710.507812 905.671875 709.335938 905.671875 707.890625 Z M 893.429688 671 C 893.429688 669.558594 892.261719 668.382812 890.8125 668.382812 L 885.089844 668.382812 C 883.648438 668.382812 882.480469 669.558594 882.480469 671 L 882.480469 674.867188 C 882.480469 676.3125 883.648438 677.480469 885.089844 677.480469 L 890.8125 677.480469 C 892.261719 677.480469 893.429688 676.3125 893.429688 674.867188 Z M 893.429688 682.105469 C 893.429688 680.660156 892.261719 679.492188 890.8125 679.492188 L 885.089844 679.492188 C 883.648438 679.492188 882.480469 680.660156 882.480469 682.105469 L 882.480469 685.972656 C 882.480469 687.414062 883.648438 688.589844 885.089844 688.589844 L 890.8125 688.589844 C 892.261719 688.589844 893.429688 687.414062 893.429688 685.972656 Z M 893.429688 693.214844 C 893.429688 691.769531 892.261719 690.597656 890.8125 690.597656 L 885.089844 690.597656 C 883.648438 690.597656 882.480469 691.769531 882.480469 693.214844 L 882.480469 697.078125 C 882.480469 698.523438 883.648438 699.691406 885.089844 699.691406 L 890.8125 699.691406 C 892.261719 699.691406 893.429688 698.523438 893.429688 697.078125 Z M 893.429688 704.320312 C 893.429688 702.875 892.261719 701.707031 890.8125 701.707031 L 885.089844 701.707031 C 883.648438 701.707031 882.480469 702.875 882.480469 704.320312 L 882.480469 708.1875 C 882.480469 709.628906 883.648438 710.796875 885.089844 710.796875 L 890.8125 710.796875 C 892.261719 710.796875 893.429688 709.628906 893.429688 708.1875 Z M 884.917969 656.984375 L 933.410156 656.984375 L 933.410156 642.695312 L 884.917969 642.695312 Z M 942.210938 637.4375 L 942.210938 710.785156 C 942.210938 714.972656 938.816406 718.367188 934.625 718.367188 L 883.695312 718.367188 C 879.511719 718.367188 876.117188 714.972656 876.117188 710.785156 L 876.117188 637.4375 C 876.117188 633.253906 879.511719 629.859375 883.695312 629.859375 L 934.625 629.859375 C 938.816406 629.859375 942.210938 633.253906 942.210938 637.4375 Z M 1015.539062 794.941406 L 1070.308594 794.941406 L 1070.308594 774.570312 C 1065.773438 775.589844 1060.710938 776.347656 1055.054688 776.691406 C 1037.542969 777.738281 1019.734375 791.503906 1015.539062 794.941406 Z M 1142.292969 742.84375 C 1120.550781 740.527344 1101.363281 758.636719 1094.625 763.898438 C 1091.6875 766.1875 1087.597656 768.683594 1082.261719 770.867188 L 1082.261719 794.941406 L 1168.53125 794.941406 L 1168.53125 771.402344 L 1149.117188 744.003906 C 1146.859375 743.492188 1144.585938 743.085938 1142.292969 742.84375 Z M 1273.101562 794.8125 C 1273.847656 794.859375 1274.589844 794.90625 1275.320312 794.945312 L 1254.921875 794.953125 L 1254.917969 794.941406 L 1194.84375 794.941406 L 1194.84375 770.109375 C 1203.214844 766.804688 1213.570312 763.148438 1224.859375 760.128906 C 1226.765625 759.722656 1228.679688 759.28125 1230.601562 758.820312 C 1231.636719 766.539062 1232.746094 774.484375 1233.953125 782.703125 C 1234.71875 787.90625 1243.699219 790.980469 1254.488281 792.800781 C 1255.300781 792.933594 1256.125 793.066406 1256.957031 793.1875 C 1256.984375 793.195312 1257.011719 793.199219 1257.039062 793.203125 C 1257.851562 793.320312 1258.671875 793.4375 1259.5 793.542969 C 1259.550781 793.550781 1259.601562 793.554688 1259.65625 793.566406 C 1260.484375 793.671875 1261.320312 793.769531 1262.15625 793.863281 C 1262.246094 793.875 1262.335938 793.890625 1262.429688 793.898438 C 1263.226562 793.988281 1264.027344 794.070312 1264.824219 794.152344 C 1264.867188 794.15625 1264.910156 794.160156 1264.957031 794.164062 C 1265.765625 794.246094 1266.574219 794.316406 1267.378906 794.386719 C 1267.539062 794.402344 1267.695312 794.414062 1267.847656 794.429688 C 1268.605469 794.488281 1269.359375 794.550781 1270.105469 794.605469 C 1270.148438 794.613281 1270.191406 794.617188 1270.234375 794.617188 C 1271 794.675781 1271.753906 794.730469 1272.507812 794.777344 C 1272.707031 794.789062 1272.90625 794.800781 1273.101562 794.8125 " fill-opacity="1" fill-rule="nonzero"/></g><path fill="rgb(98.039246%, 70.199585%, 15.689087%)" d="M 67.441406 204.867188 C 67.441406 238.421875 94.636719 265.617188 128.191406 265.617188 C 161.742188 265.617188 188.941406 238.421875 188.941406 204.867188 C 188.941406 171.308594 161.742188 144.117188 128.191406 144.117188 C 94.636719 144.117188 67.441406 171.308594 67.441406 204.867188 Z M 183.878906 204.867188 C 183.878906 235.574219 158.898438 260.554688 128.191406 260.554688 C 97.484375 260.554688 72.503906 235.574219 72.503906 204.867188 C 72.503906 174.160156 97.484375 149.179688 128.191406 149.179688 C 158.898438 149.179688 183.878906 174.160156 183.878906 204.867188 Z M 183.878906 204.867188 " fill-opacity="1" fill-rule="nonzero"/><g clip-path="url(#id4)"><path fill="rgb(98.039246%, 70.199585%, 15.689087%)" d="M 310.535156 78.304688 L 299.789062 78.304688 C 298.273438 71.371094 295.542969 64.90625 291.835938 59.121094 L 299.441406 51.519531 C 302.371094 48.585938 302.074219 43.546875 298.78125 40.25 L 292.816406 34.277344 C 291.035156 32.503906 288.75 31.597656 286.566406 31.597656 C 284.695312 31.597656 282.894531 32.261719 281.542969 33.617188 L 273.9375 41.226562 C 268.152344 37.519531 261.6875 34.785156 254.753906 33.273438 L 254.753906 22.523438 C 254.753906 18.378906 250.972656 15.023438 246.3125 15.023438 L 237.882812 15.023438 C 233.222656 15.023438 229.4375 18.378906 229.4375 22.523438 L 229.4375 33.273438 C 222.511719 34.785156 216.046875 37.519531 210.261719 41.226562 L 202.65625 33.617188 C 201.304688 32.261719 199.503906 31.597656 197.632812 31.597656 C 195.445312 31.597656 193.164062 32.503906 191.386719 34.277344 L 185.421875 40.25 C 182.121094 43.546875 181.824219 48.585938 184.753906 51.519531 L 192.367188 59.121094 C 188.660156 64.90625 185.925781 71.371094 184.410156 78.304688 L 173.660156 78.304688 C 169.519531 78.304688 166.160156 82.082031 166.160156 86.742188 L 166.160156 95.175781 C 166.160156 99.832031 169.519531 103.617188 173.660156 103.617188 L 184.410156 103.617188 C 185.925781 110.546875 188.660156 117.007812 192.367188 122.796875 L 184.753906 130.402344 C 181.824219 133.332031 182.121094 138.375 185.421875 141.675781 L 191.386719 147.640625 C 193.164062 149.417969 195.445312 150.320312 197.632812 150.320312 C 199.503906 150.320312 201.304688 149.660156 202.65625 148.304688 L 210.261719 140.6875 C 216.046875 144.402344 222.511719 147.132812 229.4375 148.648438 L 229.4375 159.398438 C 229.4375 163.535156 233.222656 166.898438 237.882812 166.898438 L 246.3125 166.898438 C 250.972656 166.898438 254.753906 163.535156 254.753906 159.398438 L 254.753906 148.648438 C 261.6875 147.132812 268.152344 144.402344 273.9375 140.6875 L 281.542969 148.304688 C 282.894531 149.660156 284.695312 150.320312 286.566406 150.320312 C 288.753906 150.320312 291.035156 149.417969 292.816406 147.640625 L 298.78125 141.675781 C 302.074219 138.375 302.371094 133.332031 299.441406 130.402344 L 291.835938 122.796875 C 295.542969 117.007812 298.273438 110.546875 299.789062 103.617188 L 310.535156 103.617188 C 314.675781 103.617188 318.035156 99.832031 318.035156 95.175781 L 318.035156 86.742188 C 318.035156 82.082031 314.675781 78.304688 310.535156 78.304688 Z M 312.972656 95.175781 C 312.972656 96.976562 311.835938 98.554688 310.535156 98.554688 L 295.710938 98.554688 L 294.84375 102.535156 C 293.484375 108.761719 291.035156 114.660156 287.574219 120.066406 L 285.371094 123.496094 L 288.253906 126.375 L 295.859375 133.980469 C 296.796875 134.914062 296.492188 136.800781 295.199219 138.09375 L 289.238281 144.058594 C 288.476562 144.820312 287.5 145.257812 286.566406 145.257812 C 286.152344 145.257812 285.5625 145.167969 285.125 144.730469 L 277.519531 137.109375 L 274.636719 134.222656 L 271.199219 136.429688 C 265.8125 139.890625 259.914062 142.335938 253.675781 143.699219 L 249.691406 144.570312 L 249.691406 159.398438 C 249.691406 160.695312 248.113281 161.835938 246.3125 161.835938 L 237.882812 161.835938 C 236.082031 161.835938 234.5 160.695312 234.5 159.398438 L 234.5 144.574219 L 230.519531 143.699219 C 224.28125 142.335938 218.386719 139.890625 212.996094 136.429688 L 209.5625 134.222656 L 206.675781 137.109375 L 199.078125 144.722656 C 198.636719 145.167969 198.046875 145.257812 197.632812 145.257812 C 196.699219 145.257812 195.726562 144.820312 194.964844 144.0625 L 189 138.09375 C 187.703125 136.800781 187.398438 134.914062 188.328125 133.984375 L 195.941406 126.378906 L 198.828125 123.496094 L 196.628906 120.066406 C 193.164062 114.660156 190.71875 108.761719 189.359375 102.535156 L 188.488281 98.554688 L 173.660156 98.554688 C 172.363281 98.554688 171.222656 96.976562 171.222656 95.175781 L 171.222656 86.742188 C 171.222656 84.945312 172.363281 83.367188 173.660156 83.367188 L 188.488281 83.367188 L 189.359375 79.382812 C 190.71875 73.152344 193.167969 67.253906 196.628906 61.851562 L 198.828125 58.417969 L 195.941406 55.539062 L 188.335938 47.9375 C 187.84375 47.453125 187.777344 46.789062 187.804688 46.320312 C 187.855469 45.445312 188.289062 44.539062 189.003906 43.828125 L 194.960938 37.863281 C 195.726562 37.097656 196.699219 36.660156 197.632812 36.660156 C 198.046875 36.660156 198.636719 36.753906 199.074219 37.195312 L 206.679688 44.804688 L 209.5625 47.6875 L 212.992188 45.488281 C 218.402344 42.023438 224.296875 39.578125 230.515625 38.222656 L 234.5 37.355469 L 234.5 22.523438 C 234.5 21.226562 236.082031 20.085938 237.882812 20.085938 L 246.3125 20.085938 C 248.113281 20.085938 249.691406 21.226562 249.691406 22.523438 L 249.691406 37.355469 L 253.675781 38.222656 C 259.898438 39.578125 265.796875 42.023438 271.207031 45.488281 L 274.636719 47.6875 L 277.519531 44.808594 L 285.125 37.195312 C 285.566406 36.753906 286.152344 36.660156 286.566406 36.660156 C 287.5 36.660156 288.476562 37.097656 289.234375 37.855469 L 295.199219 43.832031 C 296.492188 45.125 296.796875 47.003906 295.863281 47.9375 L 288.253906 55.539062 L 285.371094 58.421875 L 287.574219 61.851562 C 291.035156 67.253906 293.480469 73.152344 294.84375 79.382812 L 295.710938 83.367188 L 310.535156 83.367188 C 311.835938 83.367188 312.972656 84.945312 312.972656 86.742188 Z M 312.972656 95.175781 " fill-opacity="1" fill-rule="nonzero"/></g><path fill="rgb(98.039246%, 70.199585%, 15.689087%)" d="M 242.097656 55.523438 C 222.527344 55.523438 206.660156 71.386719 206.660156 90.960938 C 206.660156 110.53125 222.527344 126.398438 242.097656 126.398438 C 261.667969 126.398438 277.535156 110.53125 277.535156 90.960938 C 277.535156 71.386719 261.667969 55.523438 242.097656 55.523438 Z M 242.097656 121.335938 C 225.347656 121.335938 211.722656 107.710938 211.722656 90.960938 C 211.722656 74.210938 225.347656 60.585938 242.097656 60.585938 C 258.847656 60.585938 272.472656 74.210938 272.472656 90.960938 C 272.472656 107.710938 258.847656 121.335938 242.097656 121.335938 Z M 242.097656 121.335938 " fill-opacity="1" fill-rule="nonzero"/><g clip-path="url(#id5)"><path fill="rgb(98.039246%, 70.199585%, 15.689087%)" d="M 188.027344 289.140625 L 185.144531 286.253906 L 181.707031 288.460938 C 171.78125 294.835938 160.933594 299.332031 149.472656 301.828125 L 145.488281 302.699219 L 145.488281 325.761719 C 145.488281 330.28125 141.070312 333.960938 135.636719 333.960938 L 120.746094 333.960938 C 115.3125 333.960938 110.890625 330.28125 110.890625 325.761719 L 110.890625 302.699219 L 106.90625 301.828125 C 95.460938 299.335938 84.617188 294.835938 74.683594 288.460938 L 71.25 286.253906 L 68.367188 289.140625 L 54.929688 302.597656 C 53.210938 304.3125 51.101562 304.671875 49.632812 304.671875 C 46.964844 304.671875 44.25 303.484375 42.183594 301.421875 L 31.640625 290.878906 C 29.703125 288.9375 28.550781 286.480469 28.402344 283.964844 C 28.265625 281.667969 29 279.597656 30.46875 278.128906 L 46.785156 261.8125 L 44.589844 258.382812 C 38.226562 248.453125 33.730469 237.605469 31.226562 226.136719 L 30.355469 222.15625 L 7.289062 222.15625 C 2.773438 222.15625 -0.902344 217.738281 -0.902344 212.3125 L -0.902344 197.421875 C -0.902344 191.992188 2.773438 187.570312 7.289062 187.570312 L 30.355469 187.570312 L 31.226562 183.589844 C 33.734375 172.117188 38.230469 161.269531 44.585938 151.347656 L 46.789062 147.917969 L 43.90625 145.039062 L 30.46875 131.601562 C 29 130.136719 28.265625 128.0625 28.402344 125.769531 C 28.550781 123.25 29.703125 120.796875 31.644531 118.855469 L 42.179688 108.316406 C 44.25 106.246094 46.96875 105.058594 49.640625 105.058594 C 51.105469 105.058594 53.214844 105.421875 54.925781 107.132812 L 68.367188 120.585938 L 71.25 123.472656 L 74.683594 121.269531 C 84.625 114.890625 95.46875 110.394531 106.90625 107.898438 L 110.890625 107.03125 L 110.890625 83.96875 C 110.890625 79.449219 115.3125 75.773438 120.746094 75.773438 L 135.636719 75.773438 C 141.070312 75.773438 145.488281 79.449219 145.488281 83.96875 L 145.488281 107.03125 L 149.472656 107.898438 C 160.925781 110.394531 171.773438 114.894531 181.710938 121.269531 L 184.769531 123.230469 L 186 122.003906 C 184.957031 120.128906 184.035156 118.199219 183.191406 116.242188 C 173.289062 110.082031 162.304688 105.515625 150.550781 102.953125 L 150.550781 83.96875 C 150.550781 76.644531 143.878906 70.710938 135.636719 70.710938 L 120.746094 70.710938 C 112.511719 70.710938 105.828125 76.644531 105.828125 83.96875 L 105.828125 102.953125 C 93.589844 105.621094 82.171875 110.453125 71.949219 117.007812 L 58.507812 103.554688 C 56.121094 101.167969 52.945312 100 49.640625 99.996094 C 45.777344 99.996094 41.742188 101.597656 38.601562 104.734375 L 28.0625 115.277344 C 22.234375 121.097656 21.707031 130.003906 26.886719 135.183594 L 40.324219 148.617188 C 33.773438 158.835938 28.957031 170.265625 26.28125 182.507812 L 7.289062 182.507812 C -0.03125 182.507812 -5.964844 189.179688 -5.964844 197.421875 L -5.964844 212.3125 C -5.964844 220.546875 -0.03125 227.21875 7.289062 227.21875 L 26.28125 227.21875 C 28.957031 239.46875 33.773438 250.886719 40.324219 261.113281 L 26.886719 274.550781 C 21.707031 279.730469 22.234375 288.636719 28.0625 294.457031 L 38.601562 305 C 41.742188 308.132812 45.773438 309.734375 49.632812 309.734375 C 52.941406 309.734375 56.121094 308.5625 58.507812 306.175781 L 71.949219 292.71875 C 82.171875 299.28125 93.589844 304.109375 105.828125 306.777344 L 105.828125 325.761719 C 105.828125 333.082031 112.511719 339.023438 120.746094 339.023438 L 135.636719 339.023438 C 143.878906 339.023438 150.550781 333.082031 150.550781 325.761719 L 150.550781 306.777344 C 162.796875 304.109375 174.226562 299.28125 184.445312 292.71875 L 197.085938 305.382812 C 196.421875 303.058594 196.457031 300.613281 197.285156 298.417969 Z M 188.027344 289.140625 " fill-opacity="1" fill-rule="nonzero"/></g><path fill="rgb(98.039246%, 70.199585%, 15.689087%)" d="M 262.347656 212.3125 L 262.347656 197.421875 C 262.347656 189.179688 256.410156 182.507812 249.089844 182.507812 L 230.105469 182.507812 C 227.542969 170.757812 222.976562 159.769531 216.820312 149.871094 C 214.859375 149.027344 212.929688 148.101562 211.054688 147.058594 L 209.828125 148.285156 L 211.792969 151.351562 C 218.167969 161.292969 222.664062 172.136719 225.160156 183.585938 L 226.027344 187.570312 L 249.089844 187.570312 C 253.609375 187.570312 257.285156 191.992188 257.285156 197.421875 L 257.285156 207.0625 C 260.085938 209.035156 261.929688 212.148438 261.929688 215.679688 L 261.929688 215.976562 C 262.195312 214.800781 262.347656 213.578125 262.347656 212.3125 Z M 262.347656 212.3125 " fill-opacity="1" fill-rule="nonzero"/><path fill="rgb(98.039246%, 70.199585%, 15.689087%)" d="M 299.628906 258.445312 L 291.390625 258.445312 C 290.226562 253.128906 288.132812 248.175781 285.292969 243.742188 L 291.125 237.910156 C 293.371094 235.660156 293.140625 231.796875 290.617188 229.269531 L 286.046875 224.695312 C 284.683594 223.332031 282.933594 222.636719 281.257812 222.636719 C 279.820312 222.636719 278.4375 223.144531 277.402344 224.183594 L 271.570312 230.015625 C 267.132812 227.175781 262.179688 225.078125 256.867188 223.921875 L 256.867188 215.679688 C 256.867188 212.496094 253.96875 209.929688 250.390625 209.929688 L 243.933594 209.929688 C 240.355469 209.929688 237.457031 212.496094 237.457031 215.679688 L 237.457031 223.921875 C 232.144531 225.078125 227.1875 227.175781 222.753906 230.015625 L 216.925781 224.183594 C 215.886719 223.144531 214.503906 222.636719 213.070312 222.636719 C 211.394531 222.636719 209.644531 223.332031 208.277344 224.695312 L 203.710938 229.269531 C 201.175781 231.796875 200.953125 235.660156 203.195312 237.910156 L 209.03125 243.742188 C 206.191406 248.175781 204.09375 253.128906 202.9375 258.445312 L 194.691406 258.445312 C 191.511719 258.445312 188.941406 261.335938 188.941406 264.917969 L 188.941406 271.378906 C 188.941406 274.949219 191.511719 277.851562 194.691406 277.851562 L 202.9375 277.851562 C 204.09375 283.164062 206.191406 288.117188 209.03125 292.554688 L 203.195312 298.386719 C 200.953125 300.632812 201.175781 304.5 203.710938 307.03125 L 208.277344 311.601562 C 209.644531 312.964844 211.394531 313.660156 213.070312 313.660156 C 214.503906 313.660156 215.886719 313.148438 216.925781 312.113281 L 222.753906 306.273438 C 227.1875 309.121094 232.144531 311.210938 237.457031 312.371094 L 237.457031 320.617188 C 237.457031 323.789062 240.355469 326.367188 243.933594 326.367188 L 250.390625 326.367188 C 253.96875 326.367188 256.867188 323.789062 256.867188 320.617188 L 256.867188 312.371094 C 262.179688 311.210938 267.132812 309.121094 271.570312 306.273438 L 277.402344 312.113281 C 278.4375 313.148438 279.820312 313.660156 281.257812 313.660156 C 282.933594 313.660156 284.683594 312.964844 286.046875 311.601562 L 290.617188 307.03125 C 293.140625 304.5 293.371094 300.632812 291.125 298.386719 L 285.292969 292.554688 C 288.132812 288.117188 290.226562 283.164062 291.390625 277.851562 L 299.628906 277.851562 C 302.804688 277.851562 305.378906 274.949219 305.378906 271.378906 L 305.378906 264.917969 C 305.378906 261.335938 302.804688 258.445312 299.628906 258.445312 Z M 302.847656 271.378906 C 302.847656 273.550781 301.402344 275.320312 299.628906 275.320312 L 289.351562 275.320312 L 288.917969 277.308594 C 287.839844 282.234375 285.902344 286.90625 283.160156 291.191406 L 282.066406 292.90625 L 289.335938 300.175781 C 290.589844 301.433594 290.359375 303.703125 288.828125 305.242188 L 284.261719 309.808594 C 283.421875 310.644531 282.328125 311.128906 281.257812 311.128906 C 280.683594 311.128906 279.859375 310.984375 279.195312 310.324219 L 273.363281 304.484375 L 271.921875 303.042969 L 270.203125 304.144531 C 265.929688 306.886719 261.261719 308.820312 256.324219 309.902344 L 254.335938 310.335938 L 254.335938 320.617188 C 254.335938 322.390625 252.566406 323.835938 250.390625 323.835938 L 243.933594 323.835938 C 241.757812 323.835938 239.988281 322.390625 239.988281 320.617188 L 239.988281 310.335938 L 238 309.902344 C 233.058594 308.820312 228.390625 306.882812 224.121094 304.144531 L 222.402344 303.042969 L 220.960938 304.488281 L 215.136719 310.320312 C 214.46875 310.984375 213.644531 311.128906 213.070312 311.128906 C 212 311.128906 210.90625 310.644531 210.066406 309.8125 L 205.5 305.242188 C 203.960938 303.703125 203.730469 301.433594 204.984375 300.179688 L 210.820312 294.347656 L 212.261719 292.90625 L 211.164062 291.191406 C 208.417969 286.898438 206.484375 282.230469 205.410156 277.3125 L 204.976562 275.320312 L 194.691406 275.320312 C 192.917969 275.320312 191.472656 273.550781 191.472656 271.378906 L 191.472656 264.917969 C 191.472656 262.742188 192.917969 260.976562 194.691406 260.976562 L 204.976562 260.976562 L 205.410156 258.984375 C 206.484375 254.058594 208.417969 249.386719 211.164062 245.109375 L 212.261719 243.390625 L 210.820312 241.953125 L 204.984375 236.121094 C 204.417969 235.554688 204.136719 234.742188 204.1875 233.84375 C 204.246094 232.832031 204.714844 231.84375 205.503906 231.058594 L 210.066406 226.484375 C 210.90625 225.648438 212 225.167969 213.070312 225.167969 C 213.644531 225.167969 214.46875 225.308594 215.136719 225.972656 L 220.964844 231.804688 L 222.402344 233.246094 L 224.117188 232.148438 C 228.40625 229.402344 233.070312 227.46875 237.996094 226.398438 L 239.988281 225.960938 L 239.988281 215.679688 C 239.988281 213.902344 241.757812 212.460938 243.933594 212.460938 L 250.390625 212.460938 C 252.566406 212.460938 254.335938 213.902344 254.335938 215.679688 L 254.335938 225.960938 L 256.328125 226.398438 C 261.25 227.46875 265.917969 229.402344 270.207031 232.148438 L 271.921875 233.242188 L 273.363281 231.804688 L 279.191406 225.972656 C 279.859375 225.308594 280.683594 225.167969 281.257812 225.167969 C 282.324219 225.167969 283.417969 225.648438 284.257812 226.484375 L 288.828125 231.058594 C 290.359375 232.59375 290.589844 234.863281 289.335938 236.117188 L 283.503906 241.953125 L 282.0625 243.394531 L 283.164062 245.109375 C 285.902344 249.382812 287.835938 254.050781 288.917969 258.988281 L 289.351562 260.976562 L 299.628906 260.976562 C 301.402344 260.976562 302.847656 262.742188 302.847656 264.917969 Z M 302.847656 271.378906 " fill-opacity="1" fill-rule="nonzero"/><path fill="rgb(98.039246%, 70.199585%, 15.689087%)" d="M 247.160156 242.835938 C 233.179688 242.835938 221.847656 254.167969 221.847656 268.148438 C 221.847656 282.125 233.179688 293.460938 247.160156 293.460938 C 261.136719 293.460938 272.472656 282.125 272.472656 268.148438 C 272.472656 254.167969 261.136719 242.835938 247.160156 242.835938 Z M 247.160156 290.929688 C 234.597656 290.929688 224.378906 280.710938 224.378906 268.148438 C 224.378906 255.585938 234.597656 245.367188 247.160156 245.367188 C 259.722656 245.367188 269.941406 255.585938 269.941406 268.148438 C 269.941406 280.710938 259.722656 290.929688 247.160156 290.929688 Z M 247.160156 290.929688 " fill-opacity="1" fill-rule="nonzero"/></svg>